<svg xmlns="http://www.w3.org/2000/svg" xmlns:xlink="http://www.w3.org/1999/xlink" viewBox="0 0 549.73 726.27"><defs><style>.cls-1{fill:#fff;}.cls-2{fill:#06283b;}.cls-3{fill:#7c9f24;}.cls-4{mask:url(#mask);}</style><mask id="mask" x="112.12" y="111.84" width="366.89" height="337.3" maskUnits="userSpaceOnUse"><g id="mask0"><circle class="cls-1" cx="274.85" cy="274.58" r="162.73"/></g></mask></defs><title>imagotipoRecurso 9</title><g id="Capa_2" data-name="Capa 2"><g id="Capa_1-2" data-name="Capa 1"><circle class="cls-2" cx="274.85" cy="274.58" r="207.12"/><circle class="cls-1" cx="275.15" cy="274.87" r="199.72"/><circle class="cls-3" cx="275.44" cy="274.58" r="192.32"/><circle class="cls-1" cx="274.85" cy="274.58" r="162.73"/><g class="cls-4"><path class="cls-2" d="M142.91,374.64c-3.66-.86-9.49,0-9.49,0v74.51H479v-84H456.78c-5,0-6.4,5.31-10.08,9.52-4.49,5.14-4.85,12.36-10.37,14.9-3.74,1.72-6.14,0-10.08,0-5,0-8.4,3.41-12.74,0-3.15-2.48-3.13-6.75-5.93-9.94-9.24-10.51-18.61,0-30.53,0-6.13,0-9.9-2.75-15.71,0-2.45,1.17-3.44,3.12-5.92,4.14-4,1.65-10.67,0-10.67,0H318.66l-14.82-.82s-8.71-.79-13.93-3.32c-3.13-1.51-12.1-1.17-16,.9s-3.78,3.08-14,2.42-7.49,3-11.86.82c-2.15-1.07-3-2.75-5-4.14-5.15-3.48-8.5-5.36-14.22-5-6.64.46-9.22,7.12-15.71,9.1-7.8,2.38-12.46,0-20.45,0H169.88s-8,1.42-13,0C151,382.07,148.83,376,142.91,374.64Z"/></g><path class="cls-2" d="M209.76,255.64l58-85.21-23.54,66.34Z"/><path class="cls-2" d="M275.44,133.67l17.17-9.46,4.57,9.46,8.87,13.47-6,21.78L278.3,179l6.58-10L282,156.6l-6.58-12.32Z"/><path class="cls-2" d="M313.2,147.14l-4.86-24.65,11.16,6.31L335,147.14l10,24.93,5.15,24.65,22.31,36.68,23.74,27.52-10.58,15.47v19.49l-35.47-16.62-24.6-14L313.2,233.4,306.05,201l10-29Z"/><path class="cls-2" d="M351.34,192l-8.44-4.42v10.32h15.41l5.13,9.22,39.23,31.35V233l-32.26-29.5-7-11.44Z"/><path class="cls-2" d="M282,272.34l6.29-28.52,5.43-23.09,7.44,36.5,8.29,4.56,7.14,18.82,32.87,18.82-4,7.69H327.69l-15.15-7.69L288.24,286Z"/><path class="cls-2" d="M234.61,290.85l-10.06-17.16,11.84-12.13L254,253.27l8.86,10.56v17.4l-3.15,14.27,40.58,21.68-18-2.85-45.91-7.5Z"/><path class="cls-2" d="M404,271l17.46-8,7.86-12v42.2l-7.86,20.66-14,4.6-8.73-12.92-5.54-19.52Z"/><path class="cls-2" d="M149.4,220.14,137,211.85l10.36,22.49,16.57,11.54,12.13,26,34,17.76-9.17-9.18-10.95-18.34-5.32-16.27-20.71-14.8-7.4-10.94Z"/><path class="cls-2" d="M118.63,266.29l3.24-8.87,14.88-13L147.56,279l20.83,5L180,295.88h8.93l10,8.88,14.61,10.94,5.68,13.91H208.14l-26.23-4.44-24.34-6.51-15.15-3-5.67-8.28-9.2-2.66-5.68-12.13V281.38Z"/><path class="cls-3" d="M274.82,0l38.44,66.57s-23.71-3.89-39-3.84c-14.85,0-37.84,3.84-37.84,3.84Z"/><path class="cls-2" d="M268.91,35.19a2.25,2.25,0,0,1,.4,0,.5.5,0,0,1,.27.08.69.69,0,0,1,.26.17,1.94,1.94,0,0,1,.26.29l10.11,12.88c0-.31-.06-.62-.08-.91s0-.58,0-.84V35.19h3.15V54.44h-1.85a1.37,1.37,0,0,1-1.25-.61L270.1,41c0,.28,0,.57.06.85s0,.53,0,.76V54.44H267V35.19Z"/><path class="cls-2" d="M.27,274.55,66.85,313S63,289.27,63,274c0-14.86,3.85-37.85,3.85-37.85Z"/><path class="cls-1" d="M27.92,265.38h3a1.26,1.26,0,0,1,.77.23,1,1,0,0,1,.43.59l3.27,11.51c.08.29.15.6.22.94s.13.67.19,1.05c.08-.38.15-.73.23-1.05s.18-.65.28-.94L40.1,266.2a1.27,1.27,0,0,1,.41-.56,1.24,1.24,0,0,1,.78-.26h1.05a1.26,1.26,0,0,1,.77.23,1.08,1.08,0,0,1,.43.59l3.75,11.51a14.32,14.32,0,0,1,.51,1.89c.06-.34.12-.68.18-1l.22-.9,3.27-11.51a1,1,0,0,1,.42-.58,1.24,1.24,0,0,1,.77-.24h2.81l-6,19.26H46.25l-4.2-13.16c-.06-.17-.11-.35-.18-.54s-.1-.41-.16-.63c-.05.22-.11.43-.17.63s-.11.37-.16.54l-4.25,13.16H33.9Z"/><path class="cls-2" d="M549.73,274.55l-66.58-38.44s3.9,23.72,3.85,39C487,290,483.15,313,483.15,313Z"/><path class="cls-1" d="M515.07,265.38v2.85h-8.54v5.34h6.72v2.76h-6.72v5.44h8.54v2.87H502.92V265.38Z"/><path class="cls-2" d="M274.82,549.45l38.44-66.57s-23.71,3.89-39,3.84c-14.85,0-37.84-3.84-37.84-3.84Z"/><path class="cls-1" d="M280.27,500.26a.93.93,0,0,1-.34.42.85.85,0,0,1-.46.12,1.28,1.28,0,0,1-.6-.2c-.22-.14-.48-.3-.78-.47a5.65,5.65,0,0,0-1.07-.45,4.88,4.88,0,0,0-2.73,0,2.94,2.94,0,0,0-.93.49,2.16,2.16,0,0,0-.56.78,2.5,2.5,0,0,0-.18,1A1.71,1.71,0,0,0,273,503a3.22,3.22,0,0,0,1,.77,8.68,8.68,0,0,0,1.43.58c.53.16,1.07.35,1.62.54a13.75,13.75,0,0,1,1.64.67,5.38,5.38,0,0,1,1.42,1,4.15,4.15,0,0,1,1,1.41,4.8,4.8,0,0,1,.39,2,6.62,6.62,0,0,1-.45,2.45,5.66,5.66,0,0,1-1.31,2,6.19,6.19,0,0,1-2.09,1.33,7.83,7.83,0,0,1-2.84.48A8.5,8.5,0,0,1,273,516a9.08,9.08,0,0,1-1.71-.5,9.74,9.74,0,0,1-1.54-.8,7.58,7.58,0,0,1-1.26-1l1-1.72a1.38,1.38,0,0,1,.34-.3.89.89,0,0,1,.47-.14,1.31,1.31,0,0,1,.72.28l.9.6a7.54,7.54,0,0,0,1.24.61,4.89,4.89,0,0,0,1.72.27,3.53,3.53,0,0,0,2.37-.72,2.62,2.62,0,0,0,.84-2.09,1.9,1.9,0,0,0-.39-1.24,3,3,0,0,0-1-.8,7.78,7.78,0,0,0-1.42-.56c-.53-.15-1.07-.31-1.62-.49a14.12,14.12,0,0,1-1.63-.64,5.18,5.18,0,0,1-1.42-1,4.58,4.58,0,0,1-1-1.49,6,6,0,0,1-.37-2.22,5.45,5.45,0,0,1,.41-2.06,5.64,5.64,0,0,1,1.23-1.77,6.16,6.16,0,0,1,2-1.23,7.24,7.24,0,0,1,2.68-.47,9.08,9.08,0,0,1,3.14.53,7.1,7.1,0,0,1,2.45,1.49Z"/><image width="274" height="552" transform="translate(223.69 223.58) scale(0.37)" xlink:href="../../../../Pictures/Dise%C3%B1o/Trekking%20Silueta%20blancoverde%202.png"/><path class="cls-2" d="M2.29,598.83a4.8,4.8,0,0,0-.41-1.46c-.14-.48-.32-1-.53-1.56a24.51,24.51,0,0,1-.93-2.71A12.5,12.5,0,0,1,0,589.66a3.85,3.85,0,0,1,.52-1.46,4.59,4.59,0,0,1,.63-.83l.41-1.88H3.13a13.22,13.22,0,0,0,1.66.11H6.56c2.64,0,5.35-.11,8.13-.31s5.63-.46,8.55-.73q4.79-.63,10.31-.94c.35-.77.56-1.25.63-1.46a5.43,5.43,0,0,0,.41-.73l1.15-.62a5.25,5.25,0,0,1,3.34.62,6.67,6.67,0,0,1,1.45,1.25q2.72-.21,5.53-.52c1.87-.28,3.82-.56,5.83-.83l8.44-1.05a70.44,70.44,0,0,1,8.34-.52c1.18,0,2.29,0,3.33.11s2,.17,3,.31l1.25.94a6.38,6.38,0,0,0,1,1.35,11.71,11.71,0,0,0,1.46,1.25,19.26,19.26,0,0,1,3,3.13q1.56,1.88,1.14,5.52l-.52,1a6.31,6.31,0,0,1-1,.84l-1,1.35H79.19a4.42,4.42,0,0,0-1.56.21,6.53,6.53,0,0,0-1.25.42c-.28.14-.59.27-.94.41a9.12,9.12,0,0,0-1.14.32c-.77-.07-1.36-.11-1.78-.11H71.07a59.47,59.47,0,0,0-6.78.42q-3.65.42-7.08.94c-1.67.2-3.27.41-4.8.62s-2.91.28-4.17.42c-.69,1.81-1.31,3.4-1.87,4.79s-1.15,2.78-1.77,4.17-1.22,2.81-1.77,4.27a45.87,45.87,0,0,0-1.57,4.69,29.43,29.43,0,0,0-2.08,3.65,17.68,17.68,0,0,0-1.36,3.85,11.68,11.68,0,0,0-2.29,3.86c-.41,1.39-.8,2.57-1.14,3.54L34,633.63a5.15,5.15,0,0,0-.94,1.15,2.56,2.56,0,0,1-.52.94,17.13,17.13,0,0,1-.83,2.6c-.14.35-.28.73-.42,1.15a1.23,1.23,0,0,0-.1.83,4.76,4.76,0,0,1-.63,1.78,7.61,7.61,0,0,1-.1,1.25l-.21,1.25a11.66,11.66,0,0,0-.31,1.35,1.77,1.77,0,0,0,.1,1l.63.84a3.74,3.74,0,0,1,.52,1,1.23,1.23,0,0,0,.52.31,1.29,1.29,0,0,1,.52.31,3.1,3.1,0,0,0,1.56.84l1,1.25q.63,3.75-1.14,5.83-1.87,2.4-6.26,2.4l-1.45-.1a6,6,0,0,1-.84-.94c-.62-.28-1.14-.52-1.56-.73a2.38,2.38,0,0,1-1.15-.94.7.7,0,0,0-.52-.21,1.29,1.29,0,0,1-.52-.31,6.41,6.41,0,0,1-1.67-.73l-1.14-.63c.07-.69.1-1.18.1-1.45a11,11,0,0,1-1.35-2.5c-.28-.91-.52-1.85-.73-2.82-.21-.76-.42-1.46-.63-2.08a4.5,4.5,0,0,0-.73-1.67,37.1,37.1,0,0,1,1.36-12.19q1.56-5,3.44-9.69,1-2.5,2-5.11c.62-1.73,1.18-3.51,1.66-5.31l1.15-1.15a8,8,0,0,1,.94-.73,6.63,6.63,0,0,1,.52-2.6c.35-.91.73-1.81,1.14-2.71a15.12,15.12,0,0,0,.73-1.67,5.24,5.24,0,0,0,.53-1.46,8.23,8.23,0,0,0-1.36.11,7,7,0,0,0-1.15.1,11.44,11.44,0,0,1-2.6.31,6.28,6.28,0,0,1-1.36-.1,5,5,0,0,1-1.56.52h-4a5.13,5.13,0,0,0-2,.31H9.38c-.56,0-1.18,0-1.88-.1a7.9,7.9,0,0,1-2.19-.84l-.73-.83c-.41-.76-.79-1.18-1.14-1.25L2.29,600Zm65.44,49.81c-.35.07-.66-.17-.94-.73a14.16,14.16,0,0,0-.94-1.77H67a9,9,0,0,1-.42-4.17c.28-1.32.59-2.57.94-3.75s.63-2.43.84-3.54A6.1,6.1,0,0,0,68,631c.35.21.59.14.73-.21a4.46,4.46,0,0,0,.42-1.46,5.61,5.61,0,0,0,.1-1.87,10.62,10.62,0,0,0-.1-1.67,36.84,36.84,0,0,0,2.08-6.67q.84-3.43,1.46-6.77t1.36-6.57a38.62,38.62,0,0,1,2.08-6,5.78,5.78,0,0,1,3,.42,3.84,3.84,0,0,1,2.19,1.35,28.22,28.22,0,0,0,5.73-6c1.67-2.36,3.34-4.66,5-6.88a34.52,34.52,0,0,1,5.84-6,15.06,15.06,0,0,1,8-3.13c1.67,1.18,3.54,2.47,5.63,3.86a16.56,16.56,0,0,1,5.1,5,12.85,12.85,0,0,1,1.57,1.14l1.66,1v1.56a10.94,10.94,0,0,1,2.4,3.23,20.86,20.86,0,0,1,1.77,3.85c.56,1.32,1.08,2.68,1.57,4.07a27.7,27.7,0,0,0,1.66,3.85,3.65,3.65,0,0,0-.21,1.15c.07.28.14.59.21.94a3.65,3.65,0,0,1,.32,1,7.15,7.15,0,0,1,.1,1.35,14.2,14.2,0,0,1-3.65,9,25.42,25.42,0,0,1-7.71,5.52,75,75,0,0,1-9.58,3.65,77.53,77.53,0,0,0-9.28,3.23.37.37,0,0,0,.42.41c.35,0,.45.21.31.63,2.09,1.25,3.68,2.26,4.79,3s2.26,1.42,3.23,2a24,24,0,0,0,3.34,1.25c1.25.35,2.95.76,5.11,1.25s3.82.9,5,1.25l3.33.73,3.13.42c1.11.14,2.6.31,4.48.52a9.22,9.22,0,0,1,1.87,2.71,13.66,13.66,0,0,1,1.05,3.12,9.09,9.09,0,0,1,.1,3,3.66,3.66,0,0,1-.83,2.19.49.49,0,0,0,.52.42,2.6,2.6,0,0,1,1,0,5.3,5.3,0,0,0-1.25,1.25c-.35.49-.7,1-1,1.46a7.56,7.56,0,0,1-1.25,1.35,2.66,2.66,0,0,1-1.67.73q-3.75,1.47-9.59.11a122,122,0,0,1-14.9-4.8c-3-1.11-5.42-2.11-7.29-3s-3.51-1.77-4.9-2.6a43.67,43.67,0,0,1-3.86-2.82q-1.77-1.56-4.06-3.64a.64.64,0,0,0-.42.41.41.41,0,0,1-.31.42,24.47,24.47,0,0,1-1.67,6.77,22.36,22.36,0,0,1-3.12,5.32c-1.11-.21-1.88-.11-2.29.31a5.62,5.62,0,0,1-1.36,1.15,2.21,2.21,0,0,1-1.56-.11,4.06,4.06,0,0,1-.94-.52A9,9,0,0,0,72,657a2.81,2.81,0,0,0-1.66-.21q-.32-.94-.63-1.77c-.21-.63-.76-.91-1.67-.84a3.3,3.3,0,0,0,.21-1.56,5.43,5.43,0,0,0-.31-1.25l-.42-1.25A2.85,2.85,0,0,1,67.73,648.64ZM102.53,601a25.36,25.36,0,0,1-3,3.65q-1.67,1.56-3.33,3.33a22.42,22.42,0,0,0-2.82,3.75,13.63,13.63,0,0,0-1.77,4.8,37.42,37.42,0,0,0,9.17-2.4l9.07-3.75a10.73,10.73,0,0,0-2.71-6.15A11.41,11.41,0,0,0,102.53,601Zm28.55,46.68,1.36-1,.1-2.19q2.61-6.36,5.32-12.19t5.83-12l1.88-4q1-2,2-4.07a3.32,3.32,0,0,1-.11-.83,3.65,3.65,0,0,1,.21-1.15,30.14,30.14,0,0,0,2.29-3.75c.63-1.11,1.22-2.25,1.78-3.44.62-1.39,1.28-2.77,2-4.16a24.92,24.92,0,0,1,2.81-4.07l.73-1,1.15.1a4.39,4.39,0,0,1,.83-.31,3.34,3.34,0,0,1,1.25-.21l1.88.32a18.28,18.28,0,0,0,6-4.48,60.87,60.87,0,0,0,5.42-7.19l1.25-1.78,1.66,1.05a7.75,7.75,0,0,0,1.67.62c.77.21,1.56.45,2.4.73a42.87,42.87,0,0,1,4.27,1.25,7.59,7.59,0,0,1,3.23,1.77l.52.94c.14.76.24,1.46.31,2.08l.42,1.88c.28,1.46.52,2.92.73,4.38a43.22,43.22,0,0,1,.42,4.69c.34,1.39.66,2.81.94,4.27s.66,2.78.93,4.17c.35,2,.73,4,1.15,5.83a32.31,32.31,0,0,0,1.67,5.21,4,4,0,0,1,1.25.11,8.91,8.91,0,0,1,2.91-.63l1.36-.1.42,1.25a4,4,0,0,0,.52.62,6.77,6.77,0,0,0,.73.63,4,4,0,0,1,2.39.73,7.2,7.2,0,0,1,1.36,1l.52.52a5,5,0,0,0,.52.31l1.88.73-1.05,2a14.9,14.9,0,0,1-3.54,4.27,20.41,20.41,0,0,1-5.21,3.44,5,5,0,0,1,.21,1.36c.07.41.17.9.31,1.46a40.63,40.63,0,0,1,.63,4.37,17.62,17.62,0,0,1,0,4.59,25.21,25.21,0,0,1-2.5,4.89,19.49,19.49,0,0,1-3.34,3.86,18.05,18.05,0,0,1-4.27,2.81,13.76,13.76,0,0,1-5,1.15,8,8,0,0,1-2.19-.73c-.42-.28-.8-.56-1.15-.83a6.26,6.26,0,0,0-1.35-.84l-1.36-.62.42-1.57a1.53,1.53,0,0,0-.1-1.45,6.73,6.73,0,0,0-1.46-1.67,6.77,6.77,0,0,1-.73-.63,8.86,8.86,0,0,0-.73-.83l-2.09-2.4,3.44-.94a8.17,8.17,0,0,0,4.17-2.08c.7-.9,1-2.47.84-4.69a9.92,9.92,0,0,0-4.28-.1c-1.11.21-2.22.45-3.33.73-1.6.41-3.16.8-4.69,1.14a27.84,27.84,0,0,1-5,.42,23.88,23.88,0,0,1-3.75-.31L161,641l-.31-1.14c0-.14-.11-.28-.32-.42A2.86,2.86,0,0,0,160,639c-.35-.42-.77-1-1.25-1.67a3,3,0,0,1-.31-2.6,5.25,5.25,0,0,1-.84-2.4,17.27,17.27,0,0,0-.73,1.67c-.14.48-.28,1-.41,1.46l-.42,1.35-1.36.21a2.88,2.88,0,0,0-.41.62,1,1,0,0,0,0,.63l.41,1.15-1,.93a1.87,1.87,0,0,1-.52.53,2.86,2.86,0,0,0-.52.41,11.78,11.78,0,0,1-.62,2.19c-.21.69-.46,1.39-.73,2.08-.35,1.12-.7,2.19-1,3.23a12.52,12.52,0,0,0-.41,3.13l-.42,1.35a3.39,3.39,0,0,1-1.35,1.26,15.14,15.14,0,0,1-1.46.72,4.44,4.44,0,0,0-1.46.84l-.31,1.35-1.57.21q-1.35.31-2,.42a6.45,6.45,0,0,1-1.25.1l-1.35-.1a20.74,20.74,0,0,0-2.09-1.88,6.75,6.75,0,0,0-1.77-1.25l-.62-.83a5.29,5.29,0,0,1-.52-1.46,10.9,10.9,0,0,0-.32-1.46,4.1,4.1,0,0,0-.62-1.87Zm33.24-27.09q-1.45,2.08-2.81,4.38a9.67,9.67,0,0,1,1.36-.11,10.1,10.1,0,0,0,1.45-.1c2.44-.14,4.69-.31,6.78-.52s4.34-.56,6.77-1c-.55-2.57-1.18-5.17-1.87-7.81s-1.32-5.42-2.09-8.13l-.52,1a71.77,71.77,0,0,0-5,6.05,49.14,49.14,0,0,0-4,6.15Zm48.35-2.19a25.15,25.15,0,0,1-.31-6c.14-2.09.21-4.1.21-6a44.56,44.56,0,0,0-.42-5.93c-.21-2.16-.41-4.21-.62-6.15s-.21-3.72-.21-5.32a10.46,10.46,0,0,1,.73-3.85,6.48,6.48,0,0,1,2.08-2.4,21.28,21.28,0,0,0,2.4-2.08,6.57,6.57,0,0,1,2.4.83,4.85,4.85,0,0,1,1.87,1.46,4.53,4.53,0,0,1,1.15,1.77,2.94,2.94,0,0,1,.21,1.88,11.68,11.68,0,0,1,4.16,4.27,19.69,19.69,0,0,1,2.5,5.83,33.26,33.26,0,0,1,1.26,6.67q.4,3.54.62,7c.21,2.3.38,4.48.52,6.57a27.29,27.29,0,0,0,1,5.31q4.59-6.66,7.71-11.77c2.16-3.48,4.31-6.77,6.46-9.9s4.55-6.43,7.19-9.69,6.15-6.95,10.32-11a9.42,9.42,0,0,1,2.08.52l1.46.63a10.32,10.32,0,0,0,1.57.52,9,9,0,0,0,2.29-.1c.35.83.59,1.45.73,1.87a7.76,7.76,0,0,1,.52,1c.14.35.31.8.52,1.36l.94,2.5a1.5,1.5,0,0,1,.21,1.15,5.8,5.8,0,0,1-.11,1.14,4.44,4.44,0,0,0-.1.84c.07.2.31.2.73,0a10.3,10.3,0,0,1-1.36,3.23,5.22,5.22,0,0,0-.83,3.33q-2.82,3.75-6.25,7.71t-6.88,8.34q-3.43,4.26-6.67,9a55.62,55.62,0,0,0-5.31,9.79,1.27,1.27,0,0,0-.94.32,6.62,6.62,0,0,0-.63.72,4.79,4.79,0,0,1-.52.84.83.83,0,0,1-.83.42,11.57,11.57,0,0,1-2.5,6.35,35.3,35.3,0,0,1-4.48,5,5.87,5.87,0,0,1,.21,1.36,5.33,5.33,0,0,1-.11,1c-.07.35-.14.73-.21,1.15a11.45,11.45,0,0,0,.11,1.35,12.42,12.42,0,0,1-2.5,4.17,10.07,10.07,0,0,1-3.23,2.5,7.42,7.42,0,0,1-7.19-.63,3.77,3.77,0,0,1-1.25-1.14,10.74,10.74,0,0,0-1.15-1.36,6.92,6.92,0,0,0-1.15-1.25,2.49,2.49,0,0,0-1.35-.83,5.76,5.76,0,0,0,0-2.19,9.12,9.12,0,0,0-.42-2.08,6.57,6.57,0,0,0-.73-1.57c-.27-.41-.55-.62-.83-.62-.28-1.74-.66-3.61-1.15-5.63s-.86-4.13-1.35-6.15-.77-4-1-5.94a29.42,29.42,0,0,1-.32-5.41,3.3,3.3,0,0,0-.52-2.19A8.34,8.34,0,0,1,212.67,618.42Zm59.92,35.64a5.38,5.38,0,0,1-1.25-2,3.12,3.12,0,0,0-1.67-1.88c-.14-1-.35-2.22-.62-3.54s-.46-2.78-.73-4.17-.39-2.88-.52-4.27a18.47,18.47,0,0,1,.2-4,7.44,7.44,0,0,1,.63-1.77c.35-.56.66-1.08.94-1.56a6.2,6.2,0,0,0,.73-1.67,2.74,2.74,0,0,0,.1-1.67.79.79,0,0,0,.73-.62c.14-.42.49-.56,1-.42.49-1.53,1-2.95,1.57-4.27s1.14-2.61,1.77-3.86l1.87-3.75a31.69,31.69,0,0,0,1.88-4.38,11.17,11.17,0,0,1-2.61-3.54,28.08,28.08,0,0,1-1.14-4,38.79,38.79,0,0,1-.63-4,22,22,0,0,0-.83-4.17,10.47,10.47,0,0,1,3-3,15.82,15.82,0,0,1,3.86-2,24.88,24.88,0,0,1,4.68-1.25l5.32-1.14q5-1.57,9-2.4c2.64-.63,5.21-1.11,7.71-1.46s5.11-.76,7.82-1,5.83-.84,9.37-1.46c.07.21.18.31.32.31h.73A1.13,1.13,0,0,0,327,582a1.15,1.15,0,0,0-.1-.52v-.52a1.67,1.67,0,0,1,.52.1,2.9,2.9,0,0,1,.62.21.69.69,0,0,0,.53,0,.82.82,0,0,0,.1-.73,11.58,11.58,0,0,0,3.23,3.65,26.87,26.87,0,0,0,4.38,2.4,4.21,4.21,0,0,1,0,1.35,3.32,3.32,0,0,1-.11.83,2.75,2.75,0,0,0-.1.84,5.68,5.68,0,0,0,.21,1.25,14.2,14.2,0,0,1-3.86,4.37,16,16,0,0,1-4.48,2.4,28.71,28.71,0,0,1-5.11,1.25c-1.73.28-3.54.59-5.41.94a41.62,41.62,0,0,0-5.53,1.25,23.37,23.37,0,0,0-5.52,2.5,3.14,3.14,0,0,0-1.56-.21,5,5,0,0,0-1.36.21c-.48.14-1,.28-1.66.42a5.2,5.2,0,0,1-2.09,0,5,5,0,0,1-2,1c-.69.21-1.42.42-2.19.62a4.49,4.49,0,0,1,.42,2.3,5.64,5.64,0,0,0,.31,2,55.87,55.87,0,0,0,9.69,0q5.32-.52,10.42-.73a.79.79,0,0,1-.1.73,1,1,0,0,0-.21.73,8.55,8.55,0,0,1,1.77,1.56c.56.62,1.11,1.25,1.67,1.88a16.08,16.08,0,0,0,1.88,1.45,3.71,3.71,0,0,0,2.18.42,8.07,8.07,0,0,1,.73,2.19,4.18,4.18,0,0,1-.31,2.4q-2.08,1.35-4.06,2.81a41.06,41.06,0,0,1-4.17,2.5,23.09,23.09,0,0,1-4.59,1.88,17.19,17.19,0,0,1-5.41.62h-.94a1.54,1.54,0,0,1-.84-.42,5.54,5.54,0,0,1-2.81.42,5.23,5.23,0,0,0-2.81.31,10.46,10.46,0,0,0-3.44-.52,9.88,9.88,0,0,1-3.34-.52q-1.87,2.71-3.54,5.73a44.26,44.26,0,0,0-2.92,6.25,40.1,40.1,0,0,0,7.09.53c1.87-.07,3.65-.21,5.31-.42l5.11-.63a48.51,48.51,0,0,1,6.56-.21,19.34,19.34,0,0,1,5.94-1.66,41.59,41.59,0,0,0,6.36-1.46,3.5,3.5,0,0,1,1.77,1.25,16.94,16.94,0,0,1,1.36,1.77A14.31,14.31,0,0,0,326,640.2a2.15,2.15,0,0,0,1.88.42,2.12,2.12,0,0,1,.63,1.25c.13.48.24.93.31,1.35a3.48,3.48,0,0,0,.52,1,1.35,1.35,0,0,0,1.14.21,19.42,19.42,0,0,1-4.48,6.25,17.79,17.79,0,0,1-5.52,3.44,34.47,34.47,0,0,1-6.88,1.77q-3.75.52-8.44,1.36a4.69,4.69,0,0,1-2,0,3.85,3.85,0,0,0-1.56-.31q-2.91.51-7,1a50.89,50.89,0,0,1-8,.41,35.11,35.11,0,0,1-7.82-1A13.54,13.54,0,0,1,272.59,654.06Zm67-.31a4.83,4.83,0,0,1-.73-.94,6.94,6.94,0,0,1-.52-1.56,13.74,13.74,0,0,1-2.29-4.07,21.86,21.86,0,0,1-1.15-4.69,23.88,23.88,0,0,1-.1-5,31.34,31.34,0,0,1,.73-4.69,19.51,19.51,0,0,0,.52-2.19c.35-1.32.69-2.6,1-3.85a8.33,8.33,0,0,1,1.56-3.23,3.46,3.46,0,0,1,.11-2.5c.34-.91.69-1.74,1-2.5a5,5,0,0,0,.31-.53,4.64,4.64,0,0,1,.21-.52c.83-2.43,1.63-4.75,2.4-7s1.63-4.48,2.39-6.56q2.08-5.73,4-11.26t3.55-11.77a5.07,5.07,0,0,1,1.45-.83,4.18,4.18,0,0,1,.53-.21,2.22,2.22,0,0,1,.72-.11,39.16,39.16,0,0,0,5.11,2.19,17.69,17.69,0,0,0,5.11.94l1.77,1.56a17.69,17.69,0,0,1,2.29,3.34,6.34,6.34,0,0,1,.63,4.37,3.44,3.44,0,0,1-1.05,1.15,36.71,36.71,0,0,1-1.35,4.27c-.49,1.18-1,2.33-1.46,3.44s-1.08,2.5-1.56,3.75a25.74,25.74,0,0,0-1.25,4.59,4.68,4.68,0,0,0-.84,1.25,6.12,6.12,0,0,1-.31,1c-.14.42-.31.87-.52,1.35a3.59,3.59,0,0,1-.94,1.15,22.1,22.1,0,0,1-1.25,5.31c-.55,1.32-1.11,2.64-1.67,4-1,2.43-1.87,4.87-2.71,7.3a28.41,28.41,0,0,0-1.45,8.12,9.86,9.86,0,0,1,2.29-.31,8.09,8.09,0,0,1,2.6.42,22.69,22.69,0,0,1,8.13-2.29q4.49-.42,8.86-.52a67.61,67.61,0,0,0,6.77-.32,7.79,7.79,0,0,0,1.36.84h1.66a4.44,4.44,0,0,1,.84.1,10,10,0,0,0,2.81,2.08c.9.35,1.88.7,2.92,1s1.77.73,2.6,1.14a11.1,11.1,0,0,1,2.61,1.46l.94,5.32q.83,1.14.72,1.56a2.55,2.55,0,0,1-.41,1.46l.21,1.35a6.65,6.65,0,0,0-2.61.94,8.64,8.64,0,0,0-1.35,1.15c-.77.07-1.5.1-2.19.1a15.39,15.39,0,0,0-4.27.63,19.75,19.75,0,0,0-6.88-1.15c-1,0-2,0-3,.1s-1.95.18-2.92.32l-3.13.41c-1,.07-2.08.11-3.12.11-.84.14-1.43.24-1.77.31a6,6,0,0,0-1,.31c-2.36.77-4.93,1.53-7.71,2.3a30.32,30.32,0,0,1-8.23,1.14q-6.15,0-9.9-3.12a9.33,9.33,0,0,0-.62-1.25A7.89,7.89,0,0,1,339.59,653.75Zm58.87-6,1.36-1,.1-2.19q2.61-6.36,5.32-12.19t5.83-12l1.88-4q1-2,2-4.07a3.32,3.32,0,0,1-.11-.83,3.65,3.65,0,0,1,.21-1.15,30.14,30.14,0,0,0,2.29-3.75c.63-1.11,1.22-2.25,1.78-3.44.62-1.39,1.28-2.77,2-4.16a24.92,24.92,0,0,1,2.81-4.07l.73-1,1.14.1a4.76,4.76,0,0,1,.84-.31,3.34,3.34,0,0,1,1.25-.21l1.87.32a18.21,18.21,0,0,0,6-4.48,60.87,60.87,0,0,0,5.42-7.19l1.25-1.78,1.66,1.05a7.75,7.75,0,0,0,1.67.62c.77.21,1.56.45,2.4.73a42.87,42.87,0,0,1,4.27,1.25,7.59,7.59,0,0,1,3.23,1.77l.52.94c.14.76.24,1.46.31,2.08l.42,1.88c.28,1.46.52,2.92.73,4.38a43.22,43.22,0,0,1,.42,4.69c.34,1.39.66,2.81.93,4.27s.66,2.78.94,4.17c.35,2,.73,4,1.15,5.83a32.31,32.31,0,0,0,1.67,5.21,4,4,0,0,1,1.25.11,8.91,8.91,0,0,1,2.91-.63l1.36-.1.42,1.25a4,4,0,0,0,.52.62,5.93,5.93,0,0,0,.73.63,4,4,0,0,1,2.39.73,7.2,7.2,0,0,1,1.36,1l.52.52a5,5,0,0,0,.52.31l1.87.73-1,2a14.9,14.9,0,0,1-3.54,4.27,20.58,20.58,0,0,1-5.21,3.44,5,5,0,0,1,.21,1.36c.07.41.17.9.31,1.46a40.63,40.63,0,0,1,.63,4.37,17.62,17.62,0,0,1,0,4.59,25.21,25.21,0,0,1-2.5,4.89,19.49,19.49,0,0,1-3.34,3.86,18.05,18.05,0,0,1-4.27,2.81,13.76,13.76,0,0,1-5,1.15,7.78,7.78,0,0,1-2.19-.73c-.42-.28-.8-.56-1.15-.83a6.26,6.26,0,0,0-1.35-.84l-1.36-.62.42-1.57a1.53,1.53,0,0,0-.1-1.45,6.73,6.73,0,0,0-1.46-1.67,6.77,6.77,0,0,1-.73-.63,8.86,8.86,0,0,0-.73-.83l-2.09-2.4,3.44-.94a8.17,8.17,0,0,0,4.17-2.08c.7-.9,1-2.47.83-4.69a9.88,9.88,0,0,0-4.27-.1c-1.11.21-2.22.45-3.33.73-1.6.41-3.16.8-4.69,1.14a27.84,27.84,0,0,1-5,.42,23.88,23.88,0,0,1-3.75-.31l-1.15-.11-.31-1.14c0-.14-.11-.28-.32-.42a2.86,2.86,0,0,0-.41-.52c-.35-.42-.77-1-1.25-1.67a3,3,0,0,1-.32-2.6,5.35,5.35,0,0,1-.83-2.4,17.27,17.27,0,0,0-.73,1.67l-.42,1.46-.41,1.35L422,637a2.55,2.55,0,0,0-.41.62,1,1,0,0,0,0,.63l.41,1.15-1,.93a1.87,1.87,0,0,1-.52.53,2.86,2.86,0,0,0-.52.41,11.08,11.08,0,0,1-.63,2.19,21.47,21.47,0,0,1-.73,2.08c-.34,1.12-.69,2.19-1,3.23a12.07,12.07,0,0,0-.41,3.13l-.42,1.35a3.36,3.36,0,0,1-1.36,1.26,13.94,13.94,0,0,1-1.45.72,4.44,4.44,0,0,0-1.46.84l-.32,1.35-1.56.21q-1.35.31-2,.42a6.45,6.45,0,0,1-1.25.1L406,658a20.74,20.74,0,0,0-2.09-1.88,6.75,6.75,0,0,0-1.77-1.25l-.62-.83a5.35,5.35,0,0,1-.53-1.46,9.5,9.5,0,0,0-.31-1.46,4.23,4.23,0,0,0-.62-1.87Zm33.24-27.09q-1.45,2.08-2.81,4.38a9.67,9.67,0,0,1,1.36-.11,10.1,10.1,0,0,0,1.45-.1c2.44-.14,4.69-.31,6.78-.52s4.34-.56,6.77-1c-.56-2.57-1.18-5.17-1.88-7.81s-1.32-5.42-2.08-8.13l-.52,1a71.77,71.77,0,0,0-5,6.05,49.14,49.14,0,0,0-4,6.15Zm49.81,40.53a17.92,17.92,0,0,1-5.94-7.39,11.93,11.93,0,0,1-.52-8.86,17.22,17.22,0,0,1,1.56-6.15,37.82,37.82,0,0,1,3.44-5.73,53.35,53.35,0,0,1,4.48-5.11l4.48-4.48a5.1,5.1,0,0,1,1.46-2.18c.7-.63,1.43-1.22,2.19-1.78a30.39,30.39,0,0,0,2.4-2,8.19,8.19,0,0,0,2-2.39,10.81,10.81,0,0,0-1.36-2.92c-.62-1-1.32-1.95-2.08-2.92s-1.56-1.94-2.4-2.92a31.15,31.15,0,0,1-2.29-3c-.07-.34-.35-.45-.83-.31a.88.88,0,0,1-.94-.1,6.21,6.21,0,0,0-.73-3.55,9.56,9.56,0,0,0-2.29-3.33,18.68,18.68,0,0,0,.93-3.23,7.57,7.57,0,0,0-.2-4.27,4.82,4.82,0,0,1,.2-2c.28-.63.56-1.22.84-1.78a8.7,8.7,0,0,0,.62-1.56,2.74,2.74,0,0,0-.1-1.67,6.45,6.45,0,0,1,2.81.21,10.71,10.71,0,0,1,2.4.84l2.08.73a2.8,2.8,0,0,0,2-.11,1.58,1.58,0,0,0-.1.94l.42.42.52.2a.49.49,0,0,1,.31.53A11.93,11.93,0,0,1,501.1,588a46.13,46.13,0,0,1,4.59,4.58,61.8,61.8,0,0,1,4,5q1.77,2.4,2.6,3.75,3-1.87,6.46-4.48c2.36-1.73,4.76-3.51,7.19-5.31s5-3.51,7.5-5.11a43.41,43.41,0,0,1,7.51-4,8.49,8.49,0,0,1,3.23,2.4,12.51,12.51,0,0,1,2,3.13,27.69,27.69,0,0,1,1.46,3.23,10.93,10.93,0,0,0,1.87,2.81,20,20,0,0,1-2.19,3.54,8.33,8.33,0,0,0-1.66,3.34,39.76,39.76,0,0,0-6.26,3.33q-3.12,2-7.92,5.42t-11.35,9.06a24.28,24.28,0,0,1,2.5,3.34c.69,1,1.25,1.94,1.66,2.71a18.47,18.47,0,0,1,1.15,2.5,7.22,7.22,0,0,1,1.88,2q.72,1.14,1.35,2.4a26.77,26.77,0,0,0,1.56,2.18,6,6,0,0,0,2.19,1.67,27.66,27.66,0,0,0,1,3.54c.42,1.05.8,2.09,1.15,3.13a17.49,17.49,0,0,1,.94,3.13,8.71,8.71,0,0,1,.31,3,12.11,12.11,0,0,1-2.5,4.69,12.26,12.26,0,0,0-2.4,3.85c-.76.21-1.53.45-2.29.73a4.27,4.27,0,0,0-1.77,1l-7.09-5a50.05,50.05,0,0,0-5.41-12,102.75,102.75,0,0,0-6.88-9.9,92.18,92.18,0,0,0-9.59,8.54,81.89,81.89,0,0,0-8.33,10,29.74,29.74,0,0,1-.63,4.37,7.26,7.26,0,0,1-1.35,2.82,8.77,8.77,0,0,1-2.4,2A26.27,26.27,0,0,1,481.51,661.14Z"/><path class="cls-3" d="M81,716.49V683.43h4.11v29.09h16.25v4Zm25.91,0V684.33l4.11-1.94v34.1Zm21.43.57a9.7,9.7,0,0,1-7.84-3.5,14,14,0,0,1-2.88-9.16q0-5.91,2.93-9.26a9.84,9.84,0,0,1,7.79-3.35,9.42,9.42,0,0,1,7.13,2.93q2.84,2.88,2.83,8.55a26.06,26.06,0,0,1-.14,2.74H121.77a8.78,8.78,0,0,0,2,5.33,6,6,0,0,0,4.58,2,7.1,7.1,0,0,0,5.2-2.18l2.5,2.79A10.56,10.56,0,0,1,128.29,717.06Zm-6.57-14.55H134.1q0-3.74-1.8-5.38a5.45,5.45,0,0,0-4-1.7,6.21,6.21,0,0,0-4.58,1.79A7.7,7.7,0,0,0,121.72,702.51Zm29.15,14L142,692.36h4.15l5.72,16.1c.41,1.2.66,2,.75,2.36.1-.37.35-1.16.76-2.36l5.62-16.1h4.11l-8.83,24.13Zm31.07,0v-2.22a9.7,9.7,0,0,1-6.85,2.79A8.84,8.84,0,0,1,169,715a7.89,7.89,0,0,1-2.26-6.05,7.11,7.11,0,0,1,2.59-5.95,10.17,10.17,0,0,1,6.43-2,12.34,12.34,0,0,1,6.23,1.56v-1.7c0-2-.45-3.41-1.37-4.2a5.48,5.48,0,0,0-3.87-1.23,12,12,0,0,0-7,2.41l-1.18-3.45a15.55,15.55,0,0,1,8.74-2.55q8.59,0,8.59,8.69v16Zm-6.23-3.07a8,8,0,0,0,6.23-3.16V706.1a10.57,10.57,0,0,0-5.67-1.6,6.92,6.92,0,0,0-4.1,1.13,3.79,3.79,0,0,0-1.61,3.3,4.24,4.24,0,0,0,1.32,3.26A5.54,5.54,0,0,0,175.71,713.42Zm34.89,3.64q-5.1,0-5.1-5.76V696h-3.92v-3.59h3.92v-8l4.1-2v10h6V696h-6v14a4.78,4.78,0,0,0,.52,2.45,2.14,2.14,0,0,0,2,.85A6.83,6.83,0,0,0,215.7,712l-.48,4A9.72,9.72,0,0,1,210.6,717.06Zm27.73-3.36a10.71,10.71,0,0,1-15.58,0q-2.88-3.35-2.88-9.25t2.88-9.26a9.66,9.66,0,0,1,7.79-3.4,9.76,9.76,0,0,1,7.79,3.35q2.88,3.36,2.88,9.26T238.33,713.7Zm-12.61-2.78a5.71,5.71,0,0,0,4.82,2.31,5.57,5.57,0,0,0,4.77-2.31,10.81,10.81,0,0,0,1.75-6.52,10.69,10.69,0,0,0-1.75-6.47,5.54,5.54,0,0,0-4.77-2.36,5.68,5.68,0,0,0-4.82,2.36,13.26,13.26,0,0,0,0,13Zm30.45,6.14a8.82,8.82,0,0,1-7.28-3.4q-2.69-3.4-2.69-9.26c0-3.94.9-7,2.69-9.26a9.46,9.46,0,0,1,13.37-1.08v-9.73l4.11-1.94v34.1h-4.11V714.6A8.08,8.08,0,0,1,256.17,717.06Zm.56-3.83a6.08,6.08,0,0,0,5.53-3.26V698.64a6.16,6.16,0,0,0-5.53-3.07,5.46,5.46,0,0,0-4.72,2.31,13.16,13.16,0,0,0,.05,12.85A5.41,5.41,0,0,0,256.73,713.23Zm34.46.47a10.72,10.72,0,0,1-15.59,0q-2.88-3.35-2.88-9.25t2.88-9.26a10.69,10.69,0,0,1,15.59-.05q2.88,3.36,2.88,9.26T291.19,713.7Zm-12.61-2.78a5.69,5.69,0,0,0,4.81,2.31,5.57,5.57,0,0,0,4.77-2.31,10.74,10.74,0,0,0,1.75-6.52,10.62,10.62,0,0,0-1.75-6.47,5.54,5.54,0,0,0-4.77-2.36,5.66,5.66,0,0,0-4.81,2.36,13.26,13.26,0,0,0,0,13Zm41.6,6.14a8.94,8.94,0,0,1-7.32-3.31q-2.69-3.35-2.69-9.3t2.69-9.31a9.19,9.19,0,0,1,7.51-3.35c4.29,0,7.1,1.87,8.46,5.62L325,698.83a4.51,4.51,0,0,0-4.53-3.21,5,5,0,0,0-4.53,2.31,14.72,14.72,0,0,0,0,13,5,5,0,0,0,4.39,2.27,4.71,4.71,0,0,0,4.91-3.59l3.83,1.27a8.27,8.27,0,0,1-3.22,4.58A9.47,9.47,0,0,1,320.18,717.06Zm32.07-3.36a10.71,10.71,0,0,1-15.58,0q-2.88-3.35-2.88-9.25t2.88-9.26a10.68,10.68,0,0,1,15.58-.05q2.88,3.36,2.88,9.26T352.25,713.7Zm-12.61-2.78a5.71,5.71,0,0,0,4.82,2.31,5.57,5.57,0,0,0,4.77-2.31A10.81,10.81,0,0,0,351,704.4a10.69,10.69,0,0,0-1.75-6.47,5.54,5.54,0,0,0-4.77-2.36,5.68,5.68,0,0,0-4.82,2.36,13.26,13.26,0,0,0,0,13Zm36.78,5.57V701.9c0-2.18-.48-3.77-1.42-4.77a4.76,4.76,0,0,0-3.78-1.56c-3.72,0-5.57,2.08-5.57,6.23v14.69h-4.11V692.36h4.11v2.45a7.3,7.3,0,0,1,6.23-3q4.26,0,6.42,2.6t2.22,8.22v13.88Zm18.25.57q-5.1,0-5.1-5.76V696h-3.92v-3.59h3.92v-8l4.11-2v10h5.95V696h-5.95v14a4.68,4.68,0,0,0,.52,2.45,2.11,2.11,0,0,0,2,.85,6.8,6.8,0,0,0,3.59-1.27l-.47,4A9.79,9.79,0,0,1,394.67,717.06Zm15.06-29.8a2.58,2.58,0,0,1-1.84.71,2.57,2.57,0,0,1-1.79-4.4,2.39,2.39,0,0,1,1.79-.8,2.43,2.43,0,0,1,1.84.8,2.62,2.62,0,0,1,0,3.69Zm-3.87,29.23V692.36H410v24.13Zm19.36,9.78-2-3.21q5.24-.28,7.22-1.85a4.86,4.86,0,0,0,2-4.15v-2.93a7.21,7.21,0,0,1-6.23,2.93,8.93,8.93,0,0,1-7.08-3.31q-2.79-3.3-2.79-9.35,0-5.85,2.74-9.21a9,9,0,0,1,7.27-3.4,7.82,7.82,0,0,1,6.09,2.55v-2h4.11V715.5q0,5.52-3,8C431.68,725.12,428.87,726.05,425.22,726.27Zm1.89-13a5.72,5.72,0,0,0,3-.89,7,7,0,0,0,2.4-2.51V698.78a6.43,6.43,0,0,0-2.4-2.31,6,6,0,0,0-3-.9,5.72,5.72,0,0,0-4.91,2.31,11,11,0,0,0-1.65,6.52,10.43,10.43,0,0,0,1.79,6.47A5.77,5.77,0,0,0,427.11,713.23Zm34.36.47a10.72,10.72,0,0,1-15.59,0q-2.88-3.35-2.88-9.25t2.88-9.26a10.69,10.69,0,0,1,15.59-.05q2.88,3.36,2.88,9.26T461.47,713.7Zm-12.61-2.78a5.7,5.7,0,0,0,4.82,2.31,5.6,5.6,0,0,0,4.77-2.31,10.81,10.81,0,0,0,1.74-6.52,10.69,10.69,0,0,0-1.74-6.47,5.56,5.56,0,0,0-4.77-2.36,5.67,5.67,0,0,0-4.82,2.36,13.26,13.26,0,0,0,0,13Z"/></g></g></svg>