<svg xmlns="http://www.w3.org/2000/svg" xmlns:xlink="http://www.w3.org/1999/xlink" viewBox="0 0 1638.75 500"><defs><style>.cls-1{fill:#fff;}.cls-2{fill:#06283b;}.cls-3{fill:#7c9f24;}.cls-4{mask:url(#mask);}</style><mask id="mask" x="101.78" y="101.78" width="333.87" height="306.95" maskUnits="userSpaceOnUse"><g id="mask0"><circle class="cls-1" cx="249.87" cy="249.87" r="148.09"/></g></mask></defs><title>imagotipo_horizontalRecurso 8</title><g id="Capa_2" data-name="Capa 2"><g id="Capa_1-2" data-name="Capa 1"><circle class="cls-2" cx="249.87" cy="249.87" r="188.48"/><circle class="cls-1" cx="250.13" cy="250.13" r="181.74"/><circle class="cls-3" cx="250.4" cy="249.87" r="175.01"/><circle class="cls-1" cx="249.87" cy="249.87" r="148.09"/><g class="cls-4"><path class="cls-2" d="M129.79,340.92c-3.32-.78-8.63,0-8.63,0v67.8H435.65V332.26H415.42c-4.53,0-5.83,4.83-9.17,8.66-4.09,4.68-4.42,11.25-9.44,13.56-3.4,1.57-5.59,0-9.17,0-4.53,0-7.65,3.1-11.6,0-2.87-2.25-2.84-6.14-5.39-9-8.41-9.57-16.93,0-27.78,0-5.59,0-9-2.51-14.3,0-2.23,1.06-3.13,2.84-5.39,3.77-3.64,1.5-9.71,0-9.71,0H289.73l-13.48-.76s-7.93-.71-12.68-3c-2.85-1.38-11-1.07-14.51.82s-3.45,2.8-12.73,2.19-6.81,2.73-10.79.76c-1.95-1-2.71-2.51-4.58-3.77-4.69-3.17-7.74-4.88-13-4.52-6,.42-8.39,6.49-14.29,8.29-7.1,2.16-11.35,0-18.61,0H154.34s-7.33,1.29-11.87,0C137.11,347.69,135.18,342.18,129.79,340.92Z"/></g><path class="cls-2" d="M190.63,232.63l52.77-77.54L222,215.46Z"/><path class="cls-2" d="M250.4,121.64,266,113l4.17,8.6,8.07,12.26-5.47,19.82L253,162.85l6-9.13-2.6-11.22-6-11.21Z"/><path class="cls-2" d="M284.77,133.9l-4.43-22.43,10.15,5.74,14.06,16.69,9.11,22.69L318.35,179l20.3,33.38,21.61,25-9.63,14.09v17.73l-32.28-15.12L296,241.35,284.77,212.4l-6.51-29.47,9.11-26.34Z"/><path class="cls-2" d="M319.47,174.73l-7.68-4v9.39h14l4.67,8.39L366.18,217v-5l-29.36-26.84-6.34-10.41Z"/><path class="cls-2" d="M256.33,247.83l5.72-26,4.94-21,6.77,33.21,7.54,4.16,6.5,17.12,29.92,17.13-3.65,7H298l-13.79-7-22.11-12.2Z"/><path class="cls-2" d="M213.25,264.67l-9.16-15.61,10.77-11,16-7.54,8.06,9.61v15.83l-2.86,13L273,288.64,256.64,286l-41.78-6.83Z"/><path class="cls-2" d="M367.37,246.61l15.89-7.31,7.15-11v38.4l-7.15,18.8-12.71,4.18L362.6,278l-5-17.76Z"/><path class="cls-2" d="M135.7,200.32l-11.31-7.54,9.43,20.47,15.08,10.5,11,23.69,31,16.16-8.35-8.35-10-16.69-4.85-14.81L148.9,210.29l-6.74-10Z"/><path class="cls-2" d="M107.7,242.33l3-8.08,13.54-11.85L134,253.9,153,258.48l10.58,10.77h8.12l9.11,8.08,13.29,10L199.25,300H189.16l-23.87-4L143.14,290l-13.78-2.69-5.17-7.54-8.37-2.42-5.17-11V256.06Z"/><path class="cls-3" d="M249.84,0l35,60.58S263.24,57,249.3,57.08c-13.52,0-34.44,3.5-34.44,3.5Z"/><path class="cls-2" d="M244.45,32a1.9,1.9,0,0,1,.37,0,.52.52,0,0,1,.25.07.57.57,0,0,1,.23.16,1.56,1.56,0,0,1,.24.26l9.2,11.72c0-.28-.06-.56-.07-.82s0-.53,0-.77V32h2.87V49.54h-1.69a1.49,1.49,0,0,1-.64-.12,1.52,1.52,0,0,1-.5-.44l-9.16-11.66c0,.26,0,.51.05.77s0,.48,0,.69V49.54h-2.87V32Z"/><path class="cls-2" d="M0,249.84l60.58,35S57,263.24,57.08,249.3c0-13.52,3.5-34.44,3.5-34.44Z"/><path class="cls-1" d="M25.16,241.5h2.73a1.15,1.15,0,0,1,.71.21.92.92,0,0,1,.39.53l3,10.48c.07.26.13.54.19.85s.12.62.18,1c.07-.33.13-.65.21-1s.16-.59.25-.85l3.44-10.48a1.14,1.14,0,0,1,.38-.51,1.11,1.11,0,0,1,.7-.23h1a1.12,1.12,0,0,1,.7.21.92.92,0,0,1,.39.53l3.42,10.48a15.74,15.74,0,0,1,.46,1.72c0-.32.11-.62.17-.91s.12-.56.19-.81l3-10.48a1,1,0,0,1,.38-.52,1.09,1.09,0,0,1,.7-.22h2.55L44.78,259H41.84l-3.83-12-.16-.5c0-.18-.09-.37-.14-.57-.05.2-.1.39-.16.57l-.14.5-3.87,12H30.6Z"/><path class="cls-2" d="M500,249.84l-60.58-35s3.54,21.58,3.5,35.52c0,13.52-3.5,34.44-3.5,34.44Z"/><path class="cls-1" d="M468.46,241.5v2.59h-7.77V249h6.12v2.51h-6.12v5h7.77V259h-11V241.5Z"/><path class="cls-2" d="M249.84,500l35-60.58s-21.58,3.54-35.52,3.5c-13.52,0-34.44-3.5-34.44-3.5Z"/><path class="cls-1" d="M254.8,455.24a1,1,0,0,1-.32.38.76.76,0,0,1-.41.11,1,1,0,0,1-.54-.19c-.21-.13-.44-.27-.72-.42a5.55,5.55,0,0,0-1-.41,4.26,4.26,0,0,0-2.48,0,2.64,2.64,0,0,0-.85.45,1.83,1.83,0,0,0-.51.7,2.35,2.35,0,0,0-.17.89,1.56,1.56,0,0,0,.34,1,2.91,2.91,0,0,0,.92.7,7.49,7.49,0,0,0,1.3.52c.48.16,1,.32,1.48.5a12.61,12.61,0,0,1,1.49.61,4.72,4.72,0,0,1,1.29.87,3.86,3.86,0,0,1,.91,1.28,4.35,4.35,0,0,1,.35,1.86,5.93,5.93,0,0,1-.41,2.23,5.14,5.14,0,0,1-1.19,1.8,5.58,5.58,0,0,1-1.9,1.21,7.12,7.12,0,0,1-2.58.44,8.25,8.25,0,0,1-1.65-.17,9,9,0,0,1-1.56-.46,8.34,8.34,0,0,1-1.39-.73,7.21,7.21,0,0,1-1.16-.94l1-1.57a1.38,1.38,0,0,1,.31-.28.82.82,0,0,1,.43-.12,1.13,1.13,0,0,1,.65.26l.83.54a6.5,6.5,0,0,0,1.12.56,4.59,4.59,0,0,0,1.57.24,3.21,3.21,0,0,0,2.15-.65,2.4,2.4,0,0,0,.77-1.9,1.77,1.77,0,0,0-.35-1.13,2.79,2.79,0,0,0-.91-.73,6.77,6.77,0,0,0-1.3-.51c-.48-.13-1-.28-1.48-.44a14.25,14.25,0,0,1-1.48-.59,4.76,4.76,0,0,1-1.29-.88,4,4,0,0,1-.92-1.36,5.23,5.23,0,0,1-.34-2,4.87,4.87,0,0,1,.37-1.87,4.92,4.92,0,0,1,1.12-1.61,5.63,5.63,0,0,1,1.8-1.13,6.64,6.64,0,0,1,2.44-.42,8,8,0,0,1,2.86.49,6.5,6.5,0,0,1,2.23,1.35Z"/><image width="274" height="552" transform="translate(203.31 203.45) scale(0.34)" xlink:href="../../../../Pictures/Dise%C3%B1o/Trekking%20Silueta%20blancoverde%202.png"/><path class="cls-2" d="M520.7,139.44a9,9,0,0,0-.85-3c-.28-1-.64-2.06-1.06-3.19a51.17,51.17,0,0,1-1.92-5.54,25.65,25.65,0,0,1-.85-7,7.89,7.89,0,0,1,1.06-3,9.74,9.74,0,0,1,1.28-1.7l.85-3.83h3.2a27.71,27.71,0,0,0,3.4.21h3.62q8.1,0,16.61-.64t17.46-1.49q9.79-1.27,21.08-1.91c.71-1.57,1.13-2.56,1.28-3a16.39,16.39,0,0,0,.85-1.5l2.34-1.27q4.91-.21,6.81,1.27a13.86,13.86,0,0,1,3,2.56q5.55-.42,11.29-1.06,5.75-.85,11.92-1.71l17.25-2.13a140.62,140.62,0,0,1,17-1.06q3.63,0,6.82.21c2.13.14,4.18.36,6.17.64l2.56,1.92A12.6,12.6,0,0,0,674,106a26.17,26.17,0,0,0,3,2.56,37.73,37.73,0,0,1,6.17,6.39q3.2,3.83,2.34,11.28l-1.06,2.13a13.55,13.55,0,0,1-2.13,1.7l-2.13,2.77h-2.34a9,9,0,0,0-3.2.43,12.82,12.82,0,0,0-2.55.85c-.57.28-1.21.57-1.92.85a20,20,0,0,0-2.34.64c-1.56-.14-2.77-.21-3.62-.21h-3a121.88,121.88,0,0,0-13.84.85q-7.46.85-14.48,1.92c-3.4.42-6.67.85-9.79,1.27s-6,.57-8.52.85q-2.13,5.55-3.83,9.8t-3.62,8.52q-1.92,4.24-3.62,8.72a92.79,92.79,0,0,0-3.19,9.59,56.58,56.58,0,0,0-4.26,7.45,36.31,36.31,0,0,0-2.77,7.88,23.75,23.75,0,0,0-4.69,7.88c-.85,2.83-1.63,5.25-2.34,7.23l-.85,3.2a10.77,10.77,0,0,0-1.92,2.34,5.19,5.19,0,0,1-1.06,1.92,33.67,33.67,0,0,1-1.7,5.32c-.29.71-.57,1.49-.85,2.34a2.54,2.54,0,0,0-.22,1.7,9.55,9.55,0,0,1-1.28,3.62,15.7,15.7,0,0,1-.21,2.56l-.42,2.55a23.94,23.94,0,0,0-.64,2.77,3.73,3.73,0,0,0,.21,2.13c.43.57.85,1.14,1.28,1.7a7.57,7.57,0,0,1,1.06,2.13,2.62,2.62,0,0,0,1.07.64,2.81,2.81,0,0,1,1.06.64,6.37,6.37,0,0,0,3.2,1.7l2.12,2.56q1.29,7.66-2.34,11.92Q581,264,572,264l-3-.21a11.66,11.66,0,0,1-1.71-1.92c-1.27-.57-2.34-1.06-3.19-1.49a4.82,4.82,0,0,1-2.34-1.92,1.47,1.47,0,0,0-1.07-.42,2.69,2.69,0,0,1-1.06-.64,12.9,12.9,0,0,1-3.41-1.49l-2.34-1.28c.14-1.42.21-2.41.21-3a22.29,22.29,0,0,1-2.77-5.11q-.84-2.76-1.49-5.75c-.42-1.56-.85-3-1.27-4.26a9.33,9.33,0,0,0-1.49-3.4q-.43-14.91,2.76-24.91,3.2-10.23,7-19.81Q559,183.31,561,178t3.4-10.86l2.34-2.34a14.92,14.92,0,0,1,1.92-1.49,13.84,13.84,0,0,1,1.06-5.32c.71-1.85,1.5-3.69,2.35-5.54.56-1.14,1.06-2.27,1.49-3.41a10.67,10.67,0,0,0,1.06-3,16.12,16.12,0,0,0-2.77.22,14.49,14.49,0,0,0-2.34.21,24,24,0,0,1-5.32.64,12.11,12.11,0,0,1-2.77-.22,10.42,10.42,0,0,1-3.19,1.07h-8.09a10.39,10.39,0,0,0-4.05.64H535.18c-1.13,0-2.41-.07-3.83-.21a16.19,16.19,0,0,1-4.47-1.71l-1.49-1.7c-.85-1.56-1.63-2.41-2.34-2.56l-2.35-.64ZM654.42,241.22c-.71.14-1.35-.36-1.92-1.49a28.89,28.89,0,0,0-1.92-3.62h2.35a18.21,18.21,0,0,1-.86-8.52q.85-4.05,1.92-7.66,1.07-3.84,1.7-7.24a12.35,12.35,0,0,0-.63-7.45c.71.42,1.2.28,1.49-.43a9.29,9.29,0,0,0,.85-3,11.79,11.79,0,0,0,.21-3.83,22,22,0,0,0-.21-3.41A76.69,76.69,0,0,0,661.66,181q1.7-7,3-13.84,1.27-7,2.77-13.41a78.59,78.59,0,0,1,4.25-12.35,11.88,11.88,0,0,1,6.18.85q3.4,1.06,4.47,2.77A57.25,57.25,0,0,0,694,132.63q5.12-7.25,10.22-14a70.24,70.24,0,0,1,11.92-12.35,30.79,30.79,0,0,1,16.4-6.39q5.1,3.61,11.5,7.88a34,34,0,0,1,10.43,10.22,26.7,26.7,0,0,1,3.19,2.34l3.41,2.13v3.19a23,23,0,0,1,4.9,6.6,45.09,45.09,0,0,1,3.62,7.88c1.13,2.7,2.2,5.47,3.19,8.31a56.67,56.67,0,0,0,3.41,7.87,7.34,7.34,0,0,0-.43,2.35c.14.56.29,1.2.43,1.91a8,8,0,0,1,.64,2.13,14.79,14.79,0,0,1,.21,2.77q-.85,11.28-7.45,18.31A52.21,52.21,0,0,1,753.85,195a152.65,152.65,0,0,1-19.59,7.45,161,161,0,0,0-19,6.6.75.75,0,0,0,.85.85c.71,0,.93.43.64,1.28q6.39,3.83,9.8,6.17,3.61,2.34,6.6,4A49,49,0,0,0,740,224q3.84,1.07,10.43,2.56t10.22,2.55q3.84.85,6.82,1.49c2,.29,4.11.57,6.39.85s5.32.64,9.15,1.07a19.3,19.3,0,0,1,3.83,5.53,27.58,27.58,0,0,1,2.13,6.39,18.22,18.22,0,0,1,.22,6.18,7.49,7.49,0,0,1-1.71,4.47,1,1,0,0,0,1.07.85,5.45,5.45,0,0,1,2.13,0,10.87,10.87,0,0,0-2.56,2.55l-2.13,3a15.71,15.71,0,0,1-2.55,2.76A5.43,5.43,0,0,1,780,265.7q-7.66,3-19.59.22a248.36,248.36,0,0,1-30.45-9.8q-9.15-3.41-14.9-6.17t-10-5.33a87.93,87.93,0,0,1-7.88-5.74q-3.62-3.19-8.3-7.46a1.28,1.28,0,0,0-.85.86.83.83,0,0,1-.64.85A50.6,50.6,0,0,1,684,247a46.29,46.29,0,0,1-6.38,10.86q-3.42-.65-4.69.63a11.25,11.25,0,0,1-2.77,2.35,4.54,4.54,0,0,1-3.19-.22,8.46,8.46,0,0,1-1.92-1.06,21.08,21.08,0,0,0-1.91-1.28,5.84,5.84,0,0,0-3.41-.42c-.43-1.28-.85-2.49-1.28-3.62-.42-1.28-1.56-1.85-3.4-1.71a6.9,6.9,0,0,0,.42-3.19,10.87,10.87,0,0,0-.64-2.56c-.28-.85-.56-1.7-.85-2.55A5.82,5.82,0,0,1,654.42,241.22Zm71.11-97.31a51.71,51.71,0,0,1-6.17,7.46q-3.4,3.19-6.82,6.81a45,45,0,0,0-5.74,7.66,27.54,27.54,0,0,0-3.62,9.8,76.12,76.12,0,0,0,18.73-4.9l18.53-7.66q-1.07-7.87-5.54-12.57A23.31,23.31,0,0,0,725.53,143.91Zm58.34,95.39,2.77-2.13.21-4.47q5.32-13,10.86-24.91,5.74-11.92,11.93-24.49l3.83-8.09q2.13-4,4-8.3a7.13,7.13,0,0,1-.21-1.7,7.39,7.39,0,0,1,.43-2.35,62.43,62.43,0,0,0,4.68-7.66c1.28-2.27,2.48-4.61,3.62-7q1.92-4.26,4.05-8.51a51.33,51.33,0,0,1,5.74-8.31l1.5-2.13,2.34.22a7.67,7.67,0,0,1,1.7-.64,6.76,6.76,0,0,1,2.56-.43l3.83.64a36.9,36.9,0,0,0,12.35-9.16,119.23,119.23,0,0,0,11.07-14.69l2.55-3.62,3.41,2.13a14.47,14.47,0,0,0,3.41,1.28c1.56.43,3.19.92,4.9,1.49a86.9,86.9,0,0,1,8.73,2.56,15.51,15.51,0,0,1,6.6,3.61l1.06,1.92c.28,1.56.5,3,.64,4.26s.57,2.55.85,3.83q.85,4.47,1.49,8.94a87.71,87.71,0,0,1,.85,9.59c.71,2.84,1.35,5.74,1.92,8.73.71,2.84,1.35,5.67,1.92,8.51q1.07,6.18,2.34,11.93a66.32,66.32,0,0,0,3.4,10.64,8.53,8.53,0,0,1,2.56.21,18.64,18.64,0,0,1,6-1.27l2.77-.22.85,2.56a9.08,9.08,0,0,0,1.06,1.28,14.23,14.23,0,0,0,1.5,1.27c2.27.15,3.9.64,4.89,1.49a15.49,15.49,0,0,1,2.77,2.13l1.06,1.07a11.84,11.84,0,0,0,1.07.64l3.83,1.49-2.13,4a30.64,30.64,0,0,1-7.24,8.73,42.11,42.11,0,0,1-10.64,7,10.25,10.25,0,0,1,.42,2.77c.15.85.36,1.84.64,3a83.23,83.23,0,0,1,1.28,8.94,34.17,34.17,0,0,1,0,9.37,50.82,50.82,0,0,1-5.11,10,39.55,39.55,0,0,1-6.81,7.87,37.11,37.11,0,0,1-8.73,5.75A28.43,28.43,0,0,1,895,261.45a16.18,16.18,0,0,1-4.47-1.5c-.86-.56-1.64-1.13-2.35-1.7a13.21,13.21,0,0,0-2.76-1.7l-2.77-1.28.85-3.19a3.13,3.13,0,0,0-.21-3,13.62,13.62,0,0,0-3-3.41,13.93,13.93,0,0,1-1.48-1.28,16.33,16.33,0,0,0-1.5-1.7l-4.25-4.9,7-1.91q6.39-1.71,8.52-4.26,2.13-2.77,1.7-9.58a20.52,20.52,0,0,0-8.73-.22q-3.4.65-6.81,1.49c-3.27.85-6.46,1.64-9.58,2.35a57.94,57.94,0,0,1-10.22.85,50,50,0,0,1-7.67-.64l-2.34-.21-.64-2.35c0-.28-.21-.56-.64-.85a6.45,6.45,0,0,0-.85-1.06c-.71-.85-1.56-2-2.55-3.41a6.1,6.1,0,0,1-.64-5.32,10.73,10.73,0,0,1-1.71-4.9c-.56,1.14-1.06,2.27-1.49,3.41s-.56,2-.85,3l-.85,2.77-2.77.42a5.32,5.32,0,0,0-.85,1.28,2,2,0,0,0,0,1.28l.85,2.34-2.13,1.91a3.73,3.73,0,0,1-1.06,1.07,7.14,7.14,0,0,0-1.07.85,23.46,23.46,0,0,1-1.27,4.47c-.43,1.42-.93,2.84-1.49,4.26q-1.07,3.4-2.13,6.6a24.62,24.62,0,0,0-.85,6.39l-.86,2.77a6.89,6.89,0,0,1-2.76,2.55,27.73,27.73,0,0,1-3,1.49,9.14,9.14,0,0,0-3,1.71l-.63,2.76-3.2.43c-1.84.42-3.19.71-4,.85a13.49,13.49,0,0,1-2.56.21l-2.77-.21a41.79,41.79,0,0,0-4.26-3.83,13.59,13.59,0,0,0-3.62-2.56l-1.27-1.7a10.85,10.85,0,0,1-1.07-3,21.14,21.14,0,0,0-.64-3,8.52,8.52,0,0,0-1.27-3.83Zm67.92-55.36q-3,4.26-5.75,8.94a20,20,0,0,1,2.77-.21,21.22,21.22,0,0,0,3-.21q7.46-.42,13.84-1.07t13.84-2.12q-1.69-7.89-3.83-16-1.92-8.31-4.26-16.61l-1.06,2.13a146.06,146.06,0,0,0-10.22,12.35A102.43,102.43,0,0,0,852,183.73Zm98.8-4.47a51,51,0,0,1-.64-12.35q.42-6.39.43-12.35a91.5,91.5,0,0,0-.86-12.13q-.63-6.6-1.27-12.57-.43-6-.43-10.85a21.48,21.48,0,0,1,1.49-7.88,13.28,13.28,0,0,1,4.26-4.9,46.41,46.41,0,0,0,4.9-4.26,13.51,13.51,0,0,1,4.89,1.7,10.09,10.09,0,0,1,3.84,3,9.36,9.36,0,0,1,2.34,3.62,5.94,5.94,0,0,1,.42,3.83,24,24,0,0,1,8.52,8.73A40.79,40.79,0,0,1,983.59,135a68.3,68.3,0,0,1,2.56,13.63q.84,7.23,1.27,14.26.65,7,1.07,13.42a53.84,53.84,0,0,0,2.13,10.86q9.36-13.63,15.75-24.06,6.6-10.65,13.2-20.23,6.61-9.79,14.7-19.8a308.46,308.46,0,0,1,21.08-22.57,18.45,18.45,0,0,1,4.25,1.06l3,1.28a20.35,20.35,0,0,0,3.2,1.06,18,18,0,0,0,4.68-.21c.71,1.71,1.21,3,1.49,3.83a15.16,15.16,0,0,1,1.07,2.13c.28.71.64,1.64,1.06,2.77l1.92,5.11a3.06,3.06,0,0,1,.42,2.34,12.15,12.15,0,0,1-.21,2.35,9.21,9.21,0,0,0-.21,1.7c.14.43.64.43,1.49,0a21,21,0,0,1-2.77,6.6,10.66,10.66,0,0,0-1.7,6.81q-5.76,7.66-12.78,15.76t-14,17q-7,8.73-13.63,18.31a113.92,113.92,0,0,0-10.86,20,2.56,2.56,0,0,0-1.91.64,13.15,13.15,0,0,0-1.28,1.49,11.28,11.28,0,0,1-1.06,1.7,1.73,1.73,0,0,1-1.71.85,23.62,23.62,0,0,1-5.11,13,72.58,72.58,0,0,1-9.15,10.22,12.17,12.17,0,0,1,.42,2.77,11,11,0,0,1-.21,2.13c-.14.71-.28,1.49-.43,2.34a22,22,0,0,0,.22,2.77,25.27,25.27,0,0,1-5.11,8.51,20.11,20.11,0,0,1-6.6,5.11,13.59,13.59,0,0,1-7.46,1.28,14,14,0,0,1-7.24-2.55,8.1,8.1,0,0,1-2.55-2.34,21.55,21.55,0,0,0-2.34-2.77,13.46,13.46,0,0,0-2.34-2.56,5.12,5.12,0,0,0-2.77-1.7,12,12,0,0,0,0-4.47,19.71,19.71,0,0,0-.85-4.26,13.77,13.77,0,0,0-1.49-3.19c-.57-.86-1.14-1.28-1.71-1.28q-.85-5.33-2.34-11.5-1.27-6.39-2.77-12.56-1.27-6.18-2.13-12.14a60.61,60.61,0,0,1-.64-11.07,6.77,6.77,0,0,0-1.06-4.47A16.37,16.37,0,0,1,950.59,179.47ZM1073,252.29a10.89,10.89,0,0,1-2.56-4,6.33,6.33,0,0,0-3.4-3.83c-.29-2.13-.71-4.54-1.28-7.24s-.92-5.67-1.49-8.51-.78-5.89-1.07-8.73a36.52,36.52,0,0,1,.43-8.09,15.25,15.25,0,0,1,1.28-3.62c.71-1.14,1.35-2.2,1.91-3.2a11.72,11.72,0,0,0,1.49-3.4,5.63,5.63,0,0,0,.22-3.41,1.6,1.6,0,0,0,1.49-1.28c.28-.85,1-1.13,2.13-.85q1.49-4.68,3.19-8.73c1.14-2.7,2.34-5.32,3.62-7.88l3.83-7.66a64.38,64.38,0,0,0,3.83-8.95,22.7,22.7,0,0,1-5.32-7.24,58.27,58.27,0,0,1-2.34-8.09,80.46,80.46,0,0,1-1.28-8.09,44.86,44.86,0,0,0-1.7-8.51,21.25,21.25,0,0,1,6.17-6.18,31.9,31.9,0,0,1,7.88-4,49.83,49.83,0,0,1,9.58-2.56q5.11-1.07,10.86-2.34,10.23-3.19,18.31-4.9,8.1-1.92,15.76-3,7.67-1.28,16-2.13,8.29-1.06,19.16-3c.14.43.36.64.64.64h1.49a2.34,2.34,0,0,0,2.34,1.49,2.43,2.43,0,0,0-.21-1.07v-1.06a3.51,3.51,0,0,1,1.06.21,7.18,7.18,0,0,1,1.28.43,1.4,1.4,0,0,0,1.07,0,1.63,1.63,0,0,0,.21-1.49,23.76,23.76,0,0,0,6.6,7.45,53.71,53.71,0,0,0,8.94,4.9,8.85,8.85,0,0,1,0,2.77,7.13,7.13,0,0,1-.21,1.7,5.6,5.6,0,0,0-.21,1.7,11.85,11.85,0,0,0,.42,2.56,28.81,28.81,0,0,1-7.88,8.94,33.73,33.73,0,0,1-9.15,4.9,59.8,59.8,0,0,1-10.43,2.55q-5.33.85-11.08,1.92a86.58,86.58,0,0,0-11.28,2.55A47.27,47.27,0,0,0,1142,149a6.51,6.51,0,0,0-3.19-.42,10.31,10.31,0,0,0-2.77.42c-1,.29-2.13.57-3.4.86a10.8,10.8,0,0,1-4.26,0,10.08,10.08,0,0,1-4.05,2.12c-1.42.43-2.91.86-4.47,1.28a9.19,9.19,0,0,1,.85,4.69,11.38,11.38,0,0,0,.64,4,114.58,114.58,0,0,0,19.8,0q10.86-1.06,21.29-1.49a1.6,1.6,0,0,1-.21,1.49,2.1,2.1,0,0,0-.43,1.49,18.53,18.53,0,0,1,3.62,3.2q1.71,1.91,3.41,3.83a36.55,36.55,0,0,0,3.83,3,7.73,7.73,0,0,0,4.48.85,17.16,17.16,0,0,1,1.49,4.47,8.62,8.62,0,0,1-.64,4.9q-4.26,2.78-8.31,5.75a84.43,84.43,0,0,1-8.51,5.11,46.3,46.3,0,0,1-9.37,3.83,34.78,34.78,0,0,1-11.07,1.28h-1.92a3.08,3.08,0,0,1-1.7-.85,11.48,11.48,0,0,1-5.75.85,10.64,10.64,0,0,0-5.75.64,20.91,20.91,0,0,0-7-1.07,20.2,20.2,0,0,1-6.81-1.06,133.7,133.7,0,0,0-7.24,11.71,87.5,87.5,0,0,0-6,12.77,81.78,81.78,0,0,0,14.48,1.07c3.83-.14,7.45-.43,10.86-.85s6.88-.85,10.43-1.28a96.23,96.23,0,0,1,13.41-.43,39,39,0,0,1,12.14-3.4,84.35,84.35,0,0,0,13-3,7.09,7.09,0,0,1,3.62,2.55,36.81,36.81,0,0,1,2.77,3.62,27.91,27.91,0,0,0,3,3,4.37,4.37,0,0,0,3.83.85,4.48,4.48,0,0,1,1.28,2.56,25,25,0,0,1,.63,2.77,7.57,7.57,0,0,0,1.07,2.13,2.83,2.83,0,0,0,2.34.42q-4.05,8.31-9.15,12.78a36.9,36.9,0,0,1-11.29,7,72.4,72.4,0,0,1-14,3.62q-7.67,1.06-17.25,2.77a9.76,9.76,0,0,1-4,0,8,8,0,0,0-3.2-.64q-6,1.06-14.26,2.13a105.16,105.16,0,0,1-16.4.85,73.2,73.2,0,0,1-16-2.13A27.72,27.72,0,0,1,1073,252.29Zm136.91-.64a10.11,10.11,0,0,1-1.5-1.92,14,14,0,0,1-1.06-3.19,27.77,27.77,0,0,1-4.68-8.3,45.15,45.15,0,0,1-2.35-9.58,49.91,49.91,0,0,1-.21-10.22,65.52,65.52,0,0,1,1.49-9.59,41.75,41.75,0,0,0,1.07-4.47c.71-2.69,1.42-5.32,2.13-7.87a16.81,16.81,0,0,1,3.19-6.6,7.13,7.13,0,0,1,.21-5.12q1.07-2.76,2.13-5.11a9,9,0,0,0,.64-1.06,7.17,7.17,0,0,1,.43-1.07l4.89-14.26q2.57-7,4.9-13.41,4.26-11.72,8.09-23,4-11.28,7.24-24.06a11.08,11.08,0,0,1,3-1.7,7.87,7.87,0,0,1,1.07-.43,4.74,4.74,0,0,1,1.49-.21,82,82,0,0,0,10.43,4.47,36.29,36.29,0,0,0,10.43,1.92l3.62,3.19a36.39,36.39,0,0,1,4.69,6.81c1.42,2.27,1.84,5.26,1.27,8.95a7.12,7.12,0,0,1-2.13,2.34,81,81,0,0,1-2.76,8.73q-1.5,3.62-3,7c-1.14,2.56-2.2,5.11-3.2,7.67a55,55,0,0,0-2.55,9.37,10,10,0,0,0-1.71,2.55,11.5,11.5,0,0,1-.64,2.13c-.28.85-.63,1.78-1.06,2.77a7.32,7.32,0,0,1-1.92,2.34A45.29,45.29,0,0,1,1251,181.6l-3.41,8.09q-3,7.45-5.53,14.91a57.66,57.66,0,0,0-3,16.6,19.78,19.78,0,0,1,4.69-.63,16.65,16.65,0,0,1,5.32.85,46.66,46.66,0,0,1,16.61-4.69q9.15-.84,18.1-1.06a138.29,138.29,0,0,0,13.84-.64,15.58,15.58,0,0,0,2.77,1.7h3.4a8.64,8.64,0,0,1,1.71.22,20.63,20.63,0,0,0,5.74,4.25q2.77,1.06,6,2.13c1.84.71,3.62,1.49,5.32,2.35a21.82,21.82,0,0,1,5.32,3l1.92,10.85c1.13,1.57,1.63,2.63,1.49,3.2a5.24,5.24,0,0,1-.85,3l.42,2.77c-2.69.57-4.47,1.2-5.32,1.91a19,19,0,0,0-2.77,2.35q-2.34.21-4.47.21a31.38,31.38,0,0,0-8.73,1.28,40.57,40.57,0,0,0-14-2.35c-2,0-4,.08-6.18.22q-3,.21-6,.64l-6.38.85q-3.2.21-6.39.21c-1.71.28-2.91.5-3.62.64a11.5,11.5,0,0,0-2.13.64q-7.24,2.34-15.76,4.68a61.7,61.7,0,0,1-16.82,2.35q-12.55,0-20.23-6.39a20.32,20.32,0,0,0-1.27-2.56A11.8,11.8,0,0,1,1209.93,251.65Zm120.3-12.35,2.76-2.13.22-4.47q5.31-13,10.85-24.91,5.76-11.92,11.93-24.49c1.28-2.69,2.55-5.39,3.83-8.09s2.77-5.46,4-8.3a6.67,6.67,0,0,1-.22-1.7,7.39,7.39,0,0,1,.43-2.35,61.21,61.21,0,0,0,4.68-7.66q1.92-3.4,3.62-7,1.92-4.26,4-8.51a51.4,51.4,0,0,1,5.75-8.31l1.49-2.13,2.34.22a8.06,8.06,0,0,1,1.7-.64,6.76,6.76,0,0,1,2.56-.43l3.83.64a36.8,36.8,0,0,0,12.35-9.16,119.23,119.23,0,0,0,11.07-14.69l2.56-3.62,3.4,2.13a14.47,14.47,0,0,0,3.41,1.28c1.56.43,3.19.92,4.9,1.49a86.9,86.9,0,0,1,8.73,2.56,15.39,15.39,0,0,1,6.6,3.61l1.06,1.92c.29,1.56.5,3,.64,4.26.29,1.28.57,2.55.85,3.83q.86,4.47,1.49,8.94a87.71,87.71,0,0,1,.85,9.59c.71,2.84,1.35,5.74,1.92,8.73.71,2.84,1.35,5.67,1.92,8.51q1.07,6.18,2.34,11.93A66.35,66.35,0,0,0,1461.6,181a8.4,8.4,0,0,1,2.55.21,18.7,18.7,0,0,1,6-1.27l2.77-.22.85,2.56a9.19,9.19,0,0,0,1.07,1.28,13.12,13.12,0,0,0,1.49,1.27,8.43,8.43,0,0,1,4.9,1.49,15.76,15.76,0,0,1,2.76,2.13l1.07,1.07a10.63,10.63,0,0,0,1.06.64l3.84,1.49-2.13,4a31,31,0,0,1-7.24,8.73,42.35,42.35,0,0,1-10.65,7,10.29,10.29,0,0,1,.43,2.77c.14.85.35,1.84.64,3a85.87,85.87,0,0,1,1.27,8.94,34.17,34.17,0,0,1,0,9.37,50.82,50.82,0,0,1-5.11,10,38.91,38.91,0,0,1-6.81,7.87,37.11,37.11,0,0,1-8.73,5.75,28.43,28.43,0,0,1-10.22,2.35,16.18,16.18,0,0,1-4.47-1.5c-.85-.56-1.63-1.13-2.34-1.7a13.23,13.23,0,0,0-2.77-1.7l-2.77-1.28.85-3.19a3.11,3.11,0,0,0-.21-3,13.74,13.74,0,0,0-3-3.41,13.15,13.15,0,0,1-1.49-1.28,17.43,17.43,0,0,0-1.49-1.7l-4.26-4.9,7-1.91q6.39-1.71,8.52-4.26,2.13-2.77,1.7-9.58a20.47,20.47,0,0,0-8.72-.22q-3.42.65-6.82,1.49c-3.26.85-6.46,1.64-9.58,2.35a57.94,57.94,0,0,1-10.22.85,49.86,49.86,0,0,1-7.66-.64l-2.35-.21-.64-2.35c0-.28-.21-.56-.64-.85a6.45,6.45,0,0,0-.85-1.06c-.71-.85-1.56-2-2.55-3.41a6.1,6.1,0,0,1-.64-5.32,10.72,10.72,0,0,1-1.7-4.9,33.6,33.6,0,0,0-1.49,3.41c-.29,1-.57,2-.86,3l-.85,2.77-2.77.42a5.32,5.32,0,0,0-.85,1.28,2,2,0,0,0,0,1.28l.85,2.34-2.12,1.91a3.76,3.76,0,0,1-1.07,1.07,6.55,6.55,0,0,0-1.06.85,23.47,23.47,0,0,1-1.28,4.47c-.43,1.42-.92,2.84-1.49,4.26q-1.07,3.4-2.13,6.6a24.62,24.62,0,0,0-.85,6.39l-.85,2.77a6.91,6.91,0,0,1-2.77,2.55,28.55,28.55,0,0,1-3,1.49,9,9,0,0,0-3,1.71l-.64,2.76-3.2.43c-1.84.42-3.19.71-4,.85a13.41,13.41,0,0,1-2.56.21l-2.76-.21a44.05,44.05,0,0,0-4.26-3.83,13.75,13.75,0,0,0-3.62-2.56l-1.28-1.7a10.78,10.78,0,0,1-1.06-3,24.39,24.39,0,0,0-.64-3,8.5,8.5,0,0,0-1.28-3.83Zm67.92-55.36q-3,4.26-5.75,8.94a19.82,19.82,0,0,1,2.77-.21,21.43,21.43,0,0,0,3-.21q7.44-.42,13.84-1.07t13.84-2.12q-1.71-7.89-3.84-16-1.9-8.31-4.25-16.61l-1.07,2.13a146.06,146.06,0,0,0-10.22,12.35,103.63,103.63,0,0,0-8.09,12.56Zm101.77,82.83a36.68,36.68,0,0,1-12.13-15.12,24.32,24.32,0,0,1-1.07-18.1,35,35,0,0,1,3.2-12.56,74.25,74.25,0,0,1,7-11.71,106,106,0,0,1,9.16-10.43l9.15-9.16a10.41,10.41,0,0,1,3-4.47,56,56,0,0,1,4.47-3.62c1.71-1.28,3.34-2.62,4.9-4a16.67,16.67,0,0,0,4.05-4.89,22.31,22.31,0,0,0-2.77-6q-1.92-3-4.26-6t-4.9-6a63.77,63.77,0,0,1-4.68-6.17c-.14-.71-.71-.92-1.7-.64a1.79,1.79,0,0,1-1.92-.21,12.61,12.61,0,0,0-1.49-7.24,19.64,19.64,0,0,0-4.68-6.82,37.84,37.84,0,0,0,1.91-6.6,15.47,15.47,0,0,0-.42-8.73,9.57,9.57,0,0,1,.42-4c.57-1.28,1.14-2.49,1.7-3.62a18.22,18.22,0,0,0,1.28-3.2,5.52,5.52,0,0,0-.21-3.4,12.75,12.75,0,0,1,5.75.42,22.05,22.05,0,0,1,4.89,1.71c1.57.56,3,1.06,4.26,1.49a5.69,5.69,0,0,0,4.05-.22,3.24,3.24,0,0,0-.21,1.92l.85.85a8.24,8.24,0,0,1,1.06.43,1,1,0,0,1,.64,1.06,24.51,24.51,0,0,1,8.73,5.54,96.35,96.35,0,0,1,9.37,9.37,125,125,0,0,1,8.09,10.22q3.61,4.89,5.32,7.66,6.18-3.83,13.2-9.15,7.24-5.33,14.7-10.86,7.66-5.54,15.33-10.43a89.17,89.17,0,0,1,15.33-8.1,17.17,17.17,0,0,1,6.6,4.9,25.55,25.55,0,0,1,4,6.39,54.36,54.36,0,0,1,3,6.6,22.66,22.66,0,0,0,3.84,5.75,42,42,0,0,1-4.48,7.24,17.06,17.06,0,0,0-3.4,6.81,83.17,83.17,0,0,0-12.78,6.81q-6.39,4.05-16.18,11.08t-23.21,18.52a47.11,47.11,0,0,1,5.11,6.81q2.13,3.2,3.41,5.54a40.23,40.23,0,0,1,2.34,5.11,14.73,14.73,0,0,1,3.83,4.05,52.8,52.8,0,0,1,2.77,4.89,51.61,51.61,0,0,0,3.2,4.47,12,12,0,0,0,4.47,3.41,54.21,54.21,0,0,0,2.13,7.24q1.27,3.19,2.34,6.39a37.12,37.12,0,0,1,1.92,6.38,18,18,0,0,1,.63,6.18,24.7,24.7,0,0,1-5.11,9.58,24.85,24.85,0,0,0-4.89,7.88c-1.56.42-3.13.92-4.69,1.49a8.38,8.38,0,0,0-3.62,2.13l-14.48-10.22A102,102,0,0,0,1567,227a204.55,204.55,0,0,0-14-20.22,188.84,188.84,0,0,0-19.59,17.45,168.09,168.09,0,0,0-17,20.44,61.91,61.91,0,0,1-1.28,8.95,14.48,14.48,0,0,1-2.77,5.75,17.29,17.29,0,0,1-4.9,4A53.47,53.47,0,0,1,1499.92,266.77Z"/><path class="cls-3" d="M681.43,379.86V312.31h8.4v59.45H723v8.1Zm52.94,0V314.14l8.4-3.95v69.67ZM778.16,381q-10,0-16-7.14t-5.89-18.72q0-12.06,6-18.92t15.92-6.85a19.25,19.25,0,0,1,14.57,6q5.79,5.89,5.79,17.47a54.32,54.32,0,0,1-.29,5.6H764.84a17.87,17.87,0,0,0,4.15,10.9,12.23,12.23,0,0,0,9.36,4.06A14.49,14.49,0,0,0,789,369l5.11,5.69A21.57,21.57,0,0,1,778.16,381ZM764.74,351.3H790q-.1-7.64-3.67-11a11.2,11.2,0,0,0-8.2-3.48,12.64,12.64,0,0,0-9.36,3.67Q765.13,344.06,764.74,351.3Zm59.56,28.56-18-49.31h8.49l11.68,32.91q1.26,3.66,1.54,4.82c.2-.77.71-2.38,1.55-4.82L841,330.55h8.4l-18,49.31Zm63.49,0v-4.53a19.89,19.89,0,0,1-14,5.69q-7.81,0-12.55-4.25t-4.63-12.35q0-8,5.31-12.16a20.69,20.69,0,0,1,13.12-4.15,25.24,25.24,0,0,1,12.74,3.19v-3.48c0-4.11-.93-7-2.8-8.59s-4.44-2.5-7.91-2.5a24.58,24.58,0,0,0-14.38,4.92l-2.41-7a31.76,31.76,0,0,1,17.85-5.21q17.57,0,17.57,17.76v32.71Zm-12.74-6.27q7.25,0,12.74-6.47v-8.49a21.59,21.59,0,0,0-11.58-3.28,14.15,14.15,0,0,0-8.39,2.32,7.73,7.73,0,0,0-3.29,6.75,8.66,8.66,0,0,0,2.71,6.66C869.1,372.75,871.71,373.59,875.05,373.59ZM946.34,381q-10.41,0-10.42-11.77V337.88h-8v-7.33h8V314.24l8.4-4.05v20.36h12.16v7.33H944.32v28.57a9.69,9.69,0,0,0,1.06,5c.71,1.16,2.06,1.73,4,1.73a13.92,13.92,0,0,0,7.34-2.6l-1,8.2A20.09,20.09,0,0,1,946.34,381Zm56.68-6.85Q997.13,381,987.09,381t-15.92-6.85q-5.88-6.85-5.89-18.92t5.89-18.91q5.88-6.94,15.92-6.95t15.93,6.85q5.88,6.86,5.88,18.92T1003,374.17Zm-25.77-5.69a11.65,11.65,0,0,0,9.84,4.72,11.4,11.4,0,0,0,9.75-4.72q3.57-4.83,3.57-13.32t-3.57-13.22a11.32,11.32,0,0,0-9.75-4.83,11.56,11.56,0,0,0-9.84,4.83q-3.48,4.72-3.47,13.31Q973.78,363.65,977.25,368.48ZM1039.46,381a18,18,0,0,1-14.86-6.95q-5.5-6.94-5.5-18.91t5.5-18.92a19.33,19.33,0,0,1,27.31-2.22V314.14l8.39-3.95v69.67h-8.39V376A16.5,16.5,0,0,1,1039.46,381Zm1.16-7.82q7.34,0,11.29-6.65V343.38a12.6,12.6,0,0,0-11.29-6.27,11.15,11.15,0,0,0-9.65,4.73q-3.39,4.64-3.38,13.32,0,7.81,3.47,12.93A11.1,11.1,0,0,0,1040.62,373.2Zm70.4,1q-5.88,6.85-15.92,6.85t-15.93-6.85q-5.88-6.85-5.88-18.92t5.88-18.91q5.89-6.94,15.93-6.95t15.92,6.85q5.89,6.86,5.89,18.92T1111,374.17Zm-25.77-5.69a11.67,11.67,0,0,0,9.85,4.72,11.38,11.38,0,0,0,9.74-4.72q3.57-4.83,3.57-13.32t-3.57-13.22a11.3,11.3,0,0,0-9.74-4.83,11.58,11.58,0,0,0-9.85,4.83q-3.46,4.72-3.47,13.31Q1081.78,363.65,1085.25,368.48Zm85,12.54q-9.45,0-15-6.75t-5.5-19q0-12.15,5.5-19t15.35-6.85q13.13,0,17.27,11.48l-7.91,2.9q-2.51-6.56-9.27-6.56-6.16,0-9.26,4.73t-3.09,13.31c0,5.67,1,10.07,3.09,13.23a10.13,10.13,0,0,0,9,4.63q7.72,0,10-7.34l7.82,2.61a16.93,16.93,0,0,1-6.56,9.36A19.37,19.37,0,0,1,1170.27,381Zm65.53-6.85q-5.9,6.85-15.93,6.85T1204,374.17q-5.88-6.85-5.89-18.92t5.89-18.91q5.9-6.94,15.92-6.95t15.93,6.85q5.88,6.86,5.88,18.92T1235.8,374.17ZM1210,368.48a11.65,11.65,0,0,0,9.84,4.72,11.38,11.38,0,0,0,9.75-4.72q3.57-4.83,3.57-13.32t-3.57-13.22a11.3,11.3,0,0,0-9.75-4.83,11.56,11.56,0,0,0-9.84,4.83q-3.46,4.72-3.47,13.31Q1206.56,363.65,1210,368.48Zm75.14,11.38V350q0-6.66-2.89-9.74a9.73,9.73,0,0,0-7.72-3.19q-11.4,0-11.39,12.74v30h-8.4V330.55h8.4v5q4.53-6.18,12.74-6.18,8.68,0,13.12,5.31t4.54,16.79v28.37Zm37.3,1.16q-10.42,0-10.42-11.77V337.88h-8v-7.33h8V314.24l8.39-4.05v20.36h12.16v7.33h-12.16v28.57a9.79,9.79,0,0,0,1.06,5c.71,1.16,2.06,1.73,4.06,1.73a13.89,13.89,0,0,0,7.33-2.6l-1,8.2A20.12,20.12,0,0,1,1322.47,381Zm30.79-60.89a5.33,5.33,0,0,1-3.77,1.44,5.11,5.11,0,0,1-3.76-1.54,5.36,5.36,0,0,1,.09-7.43,4.9,4.9,0,0,1,3.67-1.64,5,5,0,0,1,3.77,1.64,5.37,5.37,0,0,1,0,7.53Zm-7.92,59.73V330.55h8.4v49.31Zm39.56,20-4.05-6.56q10.71-.58,14.76-3.77a10,10,0,0,0,4.15-8.49v-6q-4.34,6-12.74,6a18.28,18.28,0,0,1-14.47-6.75q-5.7-6.76-5.7-19.11,0-12,5.6-18.82a18.31,18.31,0,0,1,14.86-6.95,16,16,0,0,1,12.45,5.21v-4.05h8.4v47.29q0,11.28-6.08,16.31T1384.9,399.84Zm3.86-26.64a11.52,11.52,0,0,0,6.08-1.83,14.43,14.43,0,0,0,4.92-5.11V343.67a13.48,13.48,0,0,0-4.92-4.73,12.23,12.23,0,0,0-6.08-1.83q-6.55,0-10,4.73t-3.37,13.32q0,8.38,3.66,13.22A11.79,11.79,0,0,0,1388.76,373.2Zm70.21,1Q1453.07,381,1443,381t-15.92-6.85q-5.89-6.85-5.89-18.92t5.89-18.91q5.88-6.94,15.92-6.95t15.93,6.85q5.88,6.86,5.88,18.92T1459,374.17Zm-25.77-5.69a11.65,11.65,0,0,0,9.84,4.72,11.41,11.41,0,0,0,9.75-4.72q3.57-4.83,3.57-13.32t-3.57-13.22a11.33,11.33,0,0,0-9.75-4.83,11.56,11.56,0,0,0-9.84,4.83q-3.48,4.72-3.48,13.31Q1429.72,363.65,1433.2,368.48Z"/></g></g></svg>