<svg xmlns="http://www.w3.org/2000/svg" xmlns:xlink="http://www.w3.org/1999/xlink" viewBox="0 0 750 750"><defs><style>.cls-1{fill:#fff;}.cls-2{fill:#06283b;}.cls-3{fill:#7c9f24;}.cls-4{mask:url(#mask);}</style><mask id="mask" x="152.67" y="152.67" width="500.81" height="460.42" maskUnits="userSpaceOnUse"><g id="mask0"><circle class="cls-1" cx="374.8" cy="374.8" r="222.13"/></g></mask></defs><title>isotipoRecurso 10</title><g id="Capa_2" data-name="Capa 2"><g id="Capa_1-2" data-name="Capa 1"><circle class="cls-2" cx="374.8" cy="374.8" r="282.71"/><circle class="cls-1" cx="375.2" cy="375.2" r="272.62"/><circle class="cls-3" cx="375.61" cy="374.8" r="262.52"/><circle class="cls-1" cx="374.8" cy="374.8" r="222.13"/><g class="cls-4"><path class="cls-2" d="M194.69,511.38c-5-1.17-12.95,0-12.95,0V613.09H653.47V498.38H623.13c-6.79,0-8.74,7.26-13.75,13-6.14,7-6.63,16.87-14.16,20.34-5.11,2.35-8.39,0-13.76,0-6.79,0-11.47,4.65-17.4,0-4.3-3.38-4.26-9.21-8.09-13.56-12.62-14.35-25.39,0-41.67,0-8.37,0-13.51-3.76-21.44,0-3.35,1.59-4.7,4.25-8.09,5.65-5.46,2.25-14.57,0-14.57,0H434.6l-20.23-1.13s-11.9-1.07-19-4.52c-4.28-2.07-16.52-1.6-21.77,1.23s-5.18,4.19-19.09,3.29-10.23,4.1-16.19,1.13c-2.93-1.46-4.07-3.76-6.87-5.65-7-4.75-11.62-7.32-19.42-6.78-9.06.63-12.59,9.73-21.45,12.43-10.65,3.25-17,0-27.91,0H231.51s-11,1.94-17.8,0C205.67,521.53,202.78,513.27,194.69,511.38Z"/></g><path class="cls-2" d="M286,349l79.16-116.32L333,323.19Z"/><path class="cls-2" d="M375.61,182.46,399,169.55l6.25,12.91,12.11,18.39-8.2,29.73-29.68,13.69,9-13.69-3.9-16.82-9-16.82Z"/><path class="cls-2" d="M427.15,200.85l-6.64-33.64,15.23,8.6,21.09,25,13.66,34,7,33.64L508,318.6l32.41,37.55-14.45,21.13v26.6l-48.42-22.69L443.94,362,427.15,318.6l-9.76-44.21,13.66-39.51Z"/><path class="cls-2" d="M479.2,262.1l-11.51-6v14.09h21l7,12.59,53.55,42.79V318l-44-40.27-9.51-15.6Z"/><path class="cls-2" d="M384.49,371.74l8.59-38.92,7.41-31.53,10.14,49.82L422,357.34,431.7,383l44.88,25.69-5.47,10.5H446.92l-20.68-10.5-33.16-18.3Z"/><path class="cls-2" d="M319.87,397l-13.73-23.42L322.29,357l24.06-11.31,12.09,14.41v23.76l-4.29,19.47L409.53,433,385,429.06l-62.67-10.24Z"/><path class="cls-2" d="M551.05,369.92l23.84-11,10.73-16.46v57.6L574.89,428.3l-19.07,6.27L543.9,416.94l-7.55-26.65Z"/><path class="cls-2" d="M203.55,300.48l-17-11.3,14.14,30.69,22.61,15.75,16.56,35.54,46.45,24.24-12.52-12.52-14.94-25-7.27-22.22-28.28-20.19-10.09-14.95Z"/><path class="cls-2" d="M161.55,363.49,166,351.37l20.3-17.77,14.77,47.26,28.42,6.86,15.87,16.16h12.19L271.18,416l19.94,14.95,7.75,19H283.73l-35.8-6.06L214.71,435l-20.68-4-7.75-11.31L173.73,416,166,399.43V384.09Z"/><path class="cls-3" d="M374.76,0l52.46,90.87S394.85,85.56,374,85.62c-20.28.06-51.66,5.25-51.66,5.25Z"/><path class="cls-2" d="M366.68,48a4,4,0,0,1,.55,0,.94.94,0,0,1,.38.11,1.2,1.2,0,0,1,.34.23,3.85,3.85,0,0,1,.37.4l13.79,17.58c-.05-.42-.08-.84-.11-1.24s0-.79,0-1.14V48h4.31V74.31h-2.53a2.28,2.28,0,0,1-1-.18,2.18,2.18,0,0,1-.74-.65L368.32,56c0,.38.06.77.07,1.16s0,.72,0,1V74.31h-4.31V48Z"/><path class="cls-2" d="M0,374.76l90.87,52.46S85.56,394.86,85.62,374c.06-20.28,5.25-51.66,5.25-51.66Z"/><path class="cls-1" d="M37.73,362.25h4.11a1.71,1.71,0,0,1,1.06.31,1.39,1.39,0,0,1,.58.8L48,379.08c.11.39.2.81.29,1.27s.19.93.27,1.44c.1-.51.2-1,.31-1.44s.25-.88.38-1.27l5.16-15.72a1.78,1.78,0,0,1,.57-.77,1.63,1.63,0,0,1,1-.34h1.44a1.7,1.7,0,0,1,1,.31,1.48,1.48,0,0,1,.58.8l5.13,15.72a20.81,20.81,0,0,1,.69,2.58c.08-.47.17-.93.25-1.36s.2-.85.29-1.22l4.48-15.72a1.38,1.38,0,0,1,.56-.78,1.69,1.69,0,0,1,1-.33h3.84l-8.16,26.28H62.76l-5.74-18c-.08-.23-.15-.48-.24-.74l-.22-.86c-.07.31-.15.59-.23.86l-.22.74-5.8,18H45.89Z"/><path class="cls-2" d="M750,374.76l-90.87-52.47s5.31,32.37,5.25,53.28c-.06,20.27-5.25,51.65-5.25,51.65Z"/><path class="cls-1" d="M702.69,362.25v3.89H691v7.29h9.18v3.76H691v7.43h11.65v3.91H686.11V362.25Z"/><path class="cls-2" d="M374.76,750l52.46-90.87s-32.36,5.31-53.27,5.25c-20.28-.06-51.66-5.25-51.66-5.25Z"/><path class="cls-1" d="M382.2,682.86a1.24,1.24,0,0,1-.48.56,1.09,1.09,0,0,1-.61.17,1.62,1.62,0,0,1-.82-.27c-.3-.2-.66-.41-1.07-.64a8.32,8.32,0,0,0-1.46-.62,5.87,5.87,0,0,0-1.94-.29A5.61,5.61,0,0,0,374,682a3.71,3.71,0,0,0-1.28.67,2.73,2.73,0,0,0-.76,1,3.35,3.35,0,0,0-.25,1.33,2.33,2.33,0,0,0,.51,1.54,4.29,4.29,0,0,0,1.38,1.06,12.63,12.63,0,0,0,1.94.78c.73.23,1.47.48,2.22.74a19.66,19.66,0,0,1,2.23.91,7.5,7.5,0,0,1,2,1.31,5.66,5.66,0,0,1,1.36,1.93,6.63,6.63,0,0,1,.53,2.78,9,9,0,0,1-.62,3.34,7.56,7.56,0,0,1-1.78,2.71,8.66,8.66,0,0,1-2.85,1.82,10.83,10.83,0,0,1-3.87.65,12.13,12.13,0,0,1-2.48-.25,13.14,13.14,0,0,1-2.34-.69,13.33,13.33,0,0,1-2.09-1.09,11,11,0,0,1-1.73-1.42l1.42-2.35a1.68,1.68,0,0,1,.47-.41,1.21,1.21,0,0,1,.64-.18,1.67,1.67,0,0,1,1,.38c.35.24.76.51,1.24.81a9.18,9.18,0,0,0,1.69.84,6.77,6.77,0,0,0,2.34.36,4.83,4.83,0,0,0,3.24-1,3.58,3.58,0,0,0,1.14-2.85,2.57,2.57,0,0,0-.53-1.69,3.93,3.93,0,0,0-1.36-1.09,9.8,9.8,0,0,0-1.94-.76c-.73-.21-1.47-.44-2.22-.68a18.89,18.89,0,0,1-2.22-.87,7,7,0,0,1-1.94-1.33,6.08,6.08,0,0,1-1.38-2,8,8,0,0,1-.51-3,7.21,7.21,0,0,1,.56-2.8,7.51,7.51,0,0,1,1.67-2.41,8.15,8.15,0,0,1,2.71-1.69,9.7,9.7,0,0,1,3.65-.64,12.15,12.15,0,0,1,4.29.73,9.64,9.64,0,0,1,3.35,2Z"/><image width="274" height="552" transform="translate(304.96 305.18) scale(0.5)" xlink:href="../../../../Pictures/Dise%C3%B1o/Trekking%20Silueta%20blancoverde%202.png"/></g></g></svg>