<svg xmlns="http://www.w3.org/2000/svg" viewBox="0 0 692.17 103.21"><defs><style>.cls-1{fill:#fff;}</style></defs><title>logotipo_2_simpleRecurso 14</title><g id="Capa_2" data-name="Capa 2"><g id="Capa_1-2" data-name="Capa 1"><path class="cls-1" d="M2.89,24.42a5.51,5.51,0,0,0-.53-1.84c-.17-.61-.39-1.27-.65-2A30.86,30.86,0,0,1,.53,17.2,15.9,15.9,0,0,1,0,12.86,4.73,4.73,0,0,1,.66,11a5.3,5.3,0,0,1,.78-1L2,7.61h2A16.44,16.44,0,0,0,6,7.74H8.27q5,0,10.24-.39t10.76-.92q6-.78,13-1.18c.44-1,.7-1.57.79-1.84a8.39,8.39,0,0,0,.52-.92L45,1.71q3-.13,4.2.78a8.34,8.34,0,0,1,1.84,1.58c2.28-.18,4.6-.39,7-.66s4.81-.7,7.35-1.05L76,1.05A86.3,86.3,0,0,1,86.5.39c1.49,0,2.89,0,4.2.14s2.59.21,3.81.39L96.09,2.1A8.11,8.11,0,0,0,97.4,3.81a16.68,16.68,0,0,0,1.84,1.57A23.12,23.12,0,0,1,103,9.32c1.32,1.58,1.8,3.89,1.45,7l-.66,1.31a8.83,8.83,0,0,1-1.31,1.05l-1.31,1.71H99.76a5.52,5.52,0,0,0-2,.26,8.63,8.63,0,0,0-1.57.52c-.35.18-.75.35-1.18.53a13.92,13.92,0,0,0-1.45.39c-1-.08-1.7-.13-2.23-.13H89.52a75.54,75.54,0,0,0-8.53.53c-3.06.35-6,.74-8.92,1.18q-3.16.39-6,.79c-1.93.17-3.68.35-5.25.52q-1.32,3.42-2.37,6t-2.23,5.25Q55,38.85,54,41.61a57.53,57.53,0,0,0-2,5.91,35.9,35.9,0,0,0-2.62,4.59A22.63,22.63,0,0,0,47.65,57a14.64,14.64,0,0,0-2.89,4.86c-.52,1.75-1,3.23-1.44,4.46l-.53,2a6.67,6.67,0,0,0-1.18,1.44A3.2,3.2,0,0,1,41,70.88a21.06,21.06,0,0,1-1.06,3.29c-.17.43-.35.91-.52,1.44a1.53,1.53,0,0,0-.13,1,6.05,6.05,0,0,1-.79,2.23,9.36,9.36,0,0,1-.13,1.58c-.09.52-.18,1-.26,1.57a14.8,14.8,0,0,0-.4,1.71,2.37,2.37,0,0,0,.13,1.31l.79,1a4.86,4.86,0,0,1,.66,1.31,1.59,1.59,0,0,0,.65.4,1.55,1.55,0,0,1,.66.39,4,4,0,0,0,2,1.05l1.31,1.58q.79,4.72-1.44,7.35c-1.58,2-4.2,3-7.88,3l-1.83-.14a6.36,6.36,0,0,1-1-1.18c-.79-.35-1.45-.65-2-.92a2.93,2.93,0,0,1-1.45-1.18.89.89,0,0,0-.65-.26,1.66,1.66,0,0,1-.66-.39,8,8,0,0,1-2.1-.92l-1.44-.79c.08-.87.13-1.49.13-1.84a13.68,13.68,0,0,1-1.71-3.15c-.35-1.14-.66-2.32-.92-3.54-.26-1-.52-1.84-.79-2.63a5.68,5.68,0,0,0-.92-2.1,47,47,0,0,1,1.71-15.36q2-6.3,4.33-12.2,1.32-3.15,2.5-6.44t2.1-6.69L31.24,40a8.84,8.84,0,0,1,1.18-.92,8.39,8.39,0,0,1,.66-3.28q.66-1.71,1.44-3.42a21.27,21.27,0,0,0,.92-2.1,6.77,6.77,0,0,0,.66-1.84,10.2,10.2,0,0,0-1.71.14,8.45,8.45,0,0,0-1.44.13,14.73,14.73,0,0,1-3.28.39A7.7,7.7,0,0,1,28,29a6.62,6.62,0,0,1-2,.66H21a6.49,6.49,0,0,0-2.49.39h-6.7a23.22,23.22,0,0,1-2.36-.13,10.32,10.32,0,0,1-2.76-1.05l-.91-1.05c-.53-1-1-1.49-1.45-1.58l-1.44-.39ZM85.32,87.16c-.43.09-.83-.22-1.18-.92A17.46,17.46,0,0,0,83,84H84.4a11.26,11.26,0,0,1-.52-5.25c.35-1.66.74-3.24,1.18-4.73s.79-3.06,1-4.46A7.62,7.62,0,0,0,85.72,65c.43.26.74.17.92-.27a5.7,5.7,0,0,0,.52-1.83,7,7,0,0,0,.13-2.37,13.15,13.15,0,0,0-.13-2.1A47.06,47.06,0,0,0,89.79,50q1-4.34,1.83-8.53c.53-2.89,1.1-5.64,1.71-8.27A48.61,48.61,0,0,1,96,25.6a7.32,7.32,0,0,1,3.8.52,4.86,4.86,0,0,1,2.76,1.71,35.41,35.41,0,0,0,7.22-7.61q3.15-4.47,6.3-8.67a43.53,43.53,0,0,1,7.35-7.61A19,19,0,0,1,133.5,0q3.15,2.24,7.09,4.86a21,21,0,0,1,6.43,6.3,17.77,17.77,0,0,1,2,1.44l2.1,1.31v2a14.34,14.34,0,0,1,3,4.07,27.7,27.7,0,0,1,2.23,4.86c.7,1.66,1.35,3.37,2,5.12a34.85,34.85,0,0,0,2.1,4.86,4.43,4.43,0,0,0-.27,1.44c.09.35.18.74.27,1.18a5,5,0,0,1,.39,1.31,8.87,8.87,0,0,1,.13,1.71,17.9,17.9,0,0,1-4.59,11.29,32.21,32.21,0,0,1-9.72,7,92.77,92.77,0,0,1-12.07,4.59,100.82,100.82,0,0,0-11.68,4.07.46.46,0,0,0,.52.52c.44,0,.57.27.39.79q3.94,2.37,6,3.81T133.89,75a29,29,0,0,0,4.2,1.58q2.37.66,6.43,1.57c2.72.62,4.82,1.14,6.31,1.58l4.2.92c1.22.17,2.53.35,3.93.52s3.29.4,5.65.66A11.86,11.86,0,0,1,167,85.19a17.36,17.36,0,0,1,1.31,3.94,10.92,10.92,0,0,1,.13,3.81,4.5,4.5,0,0,1-1,2.75.63.63,0,0,0,.66.53,3.21,3.21,0,0,1,1.31,0,6.88,6.88,0,0,0-1.57,1.57l-1.31,1.84a10.12,10.12,0,0,1-1.58,1.71,3.35,3.35,0,0,1-2.1.92q-4.72,1.83-12.08.13a153.6,153.6,0,0,1-18.77-6q-5.64-2.1-9.19-3.81t-6.17-3.28a53.72,53.72,0,0,1-4.85-3.54q-2.23-2-5.12-4.6a.82.82,0,0,0-.53.53.5.5,0,0,1-.39.52,31.2,31.2,0,0,1-2.1,8.53,28.65,28.65,0,0,1-3.94,6.7c-1.4-.26-2.36-.13-2.89.39A6.86,6.86,0,0,1,95,99.24a2.86,2.86,0,0,1-2-.13,5.38,5.38,0,0,1-1.18-.66,13.65,13.65,0,0,0-1.19-.79,3.58,3.58,0,0,0-2.1-.26c-.26-.79-.52-1.53-.78-2.23s-1-1.14-2.1-1a4.22,4.22,0,0,0,.26-2,7.44,7.44,0,0,0-.39-1.58c-.18-.52-.35-1-.53-1.57A3.6,3.6,0,0,1,85.32,87.16Zm43.85-60a32,32,0,0,1-3.81,4.6q-2.1,2-4.2,4.2a27.88,27.88,0,0,0-3.55,4.72,17.14,17.14,0,0,0-2.23,6,46.84,46.84,0,0,0,11.55-3L138.35,39a13.45,13.45,0,0,0-3.41-7.75A14.38,14.38,0,0,0,129.17,27.17Zm36,58.81,1.71-1.31.13-2.76q3.28-8,6.7-15.36T181,51.46q1.17-2.51,2.36-5c.87-1.66,1.71-3.37,2.49-5.12a4.71,4.71,0,0,1-.13-1.05,4.79,4.79,0,0,1,.26-1.45,37.74,37.74,0,0,0,2.89-4.72q1.19-2.1,2.23-4.33,1.19-2.62,2.5-5.25a31.33,31.33,0,0,1,3.54-5.12l.92-1.32,1.44.14a5,5,0,0,1,1-.4,4.39,4.39,0,0,1,1.58-.26l2.36.39a22.73,22.73,0,0,0,7.62-5.64A74.16,74.16,0,0,0,219,3.28l1.58-2.23,2.1,1.31a8.53,8.53,0,0,0,2.1.79c1,.26,2,.57,3,.92a55.6,55.6,0,0,1,5.38,1.57,9.48,9.48,0,0,1,4.07,2.24l.65,1.18c.18,1,.31,1.84.4,2.62s.35,1.58.52,2.37q.53,2.75.92,5.51a53.58,53.58,0,0,1,.53,5.91q.66,2.63,1.18,5.38t1.18,5.25q.66,3.81,1.44,7.35a42.17,42.17,0,0,0,2.1,6.56,5.49,5.49,0,0,1,1.58.13,11.35,11.35,0,0,1,3.68-.78l1.7-.14.53,1.58a5,5,0,0,0,.65.79,9.37,9.37,0,0,0,.92.78,5.19,5.19,0,0,1,3,.92,9.77,9.77,0,0,1,1.71,1.32l.65.65c.27.18.49.31.66.4l2.36.92-1.31,2.49a18.89,18.89,0,0,1-4.46,5.38,25.82,25.82,0,0,1-6.57,4.33,6.17,6.17,0,0,1,.27,1.71c.08.52.21,1.14.39,1.84a53.69,53.69,0,0,1,.79,5.51,21.5,21.5,0,0,1,0,5.78,32.17,32.17,0,0,1-3.15,6.17,24.18,24.18,0,0,1-4.2,4.85A23.35,23.35,0,0,1,240,98.19a17.64,17.64,0,0,1-6.31,1.44,9.9,9.9,0,0,1-2.75-.92c-.53-.35-1-.7-1.45-1a8.85,8.85,0,0,0-1.7-1L226,95.82l.53-2a1.94,1.94,0,0,0-.14-1.84,8.24,8.24,0,0,0-1.83-2.1,9.59,9.59,0,0,1-.92-.79,9.6,9.6,0,0,0-.92-1l-2.63-3,4.34-1.18q3.93-1,5.25-2.63t1.05-5.9a12.56,12.56,0,0,0-5.39-.13c-1.4.26-2.8.56-4.2.91q-3,.8-5.9,1.45a35.38,35.38,0,0,1-6.3.52,30.65,30.65,0,0,1-4.73-.39l-1.44-.13-.4-1.45c0-.17-.13-.35-.39-.52a4.76,4.76,0,0,0-.53-.66c-.43-.52-1-1.22-1.57-2.1a3.79,3.79,0,0,1-.4-3.28,6.64,6.64,0,0,1-1.05-3,21.16,21.16,0,0,0-.91,2.1c-.18.62-.35,1.23-.53,1.84l-.52,1.71-1.71.26a3,3,0,0,0-.53.79,1.26,1.26,0,0,0,0,.78l.53,1.45-1.31,1.18a2.59,2.59,0,0,1-.66.66,4.75,4.75,0,0,0-.66.52,14.1,14.1,0,0,1-.78,2.76c-.27.87-.57,1.75-.92,2.62-.44,1.4-.88,2.76-1.31,4.07a14.83,14.83,0,0,0-.53,3.94l-.53,1.71a4.14,4.14,0,0,1-1.7,1.57,17.54,17.54,0,0,1-1.84.92,5.71,5.71,0,0,0-1.84,1l-.39,1.71-2,.26c-1.14.26-2,.44-2.49.52a8,8,0,0,1-1.58.14L174.58,99A26.82,26.82,0,0,0,172,96.61,8.4,8.4,0,0,0,169.73,95L168.94,94a6.89,6.89,0,0,1-.66-1.84,13.41,13.41,0,0,0-.39-1.84A5.28,5.28,0,0,0,167.1,88ZM207,51.85q-1.84,2.63-3.55,5.51a13.43,13.43,0,0,1,1.71-.13A12.75,12.75,0,0,0,207,57.1q4.59-.26,8.53-.66c2.62-.26,5.47-.7,8.53-1.31q-1-4.86-2.36-9.84-1.19-5.13-2.63-10.24l-.65,1.31a90,90,0,0,0-6.3,7.61,62.75,62.75,0,0,0-5,7.75Zm60.9-2.76a31.92,31.92,0,0,1-.39-7.61c.18-2.63.26-5.16.26-7.61a56.76,56.76,0,0,0-.52-7.49c-.26-2.71-.53-5.29-.79-7.74s-.26-4.68-.26-6.69a13.2,13.2,0,0,1,.92-4.86,8.13,8.13,0,0,1,2.62-3,27.47,27.47,0,0,0,3-2.63,8.38,8.38,0,0,1,3,1.05,6.17,6.17,0,0,1,2.36,1.84,5.9,5.9,0,0,1,1.45,2.23,3.76,3.76,0,0,1,.26,2.37,14.65,14.65,0,0,1,5.25,5.38,25.28,25.28,0,0,1,3.15,7.35,42.25,42.25,0,0,1,1.58,8.4q.53,4.47.78,8.79c.27,2.89.48,5.65.66,8.27a33.7,33.7,0,0,0,1.31,6.7q5.78-8.4,9.72-14.83t8.13-12.47q4.08-6,9.06-12.21,5.13-6.17,13-13.92a11.57,11.57,0,0,1,2.62.66l1.84.79a12.64,12.64,0,0,0,2,.65,11.17,11.17,0,0,0,2.89-.13c.43,1.05.74,1.84.92,2.37A8.39,8.39,0,0,1,343.39,6c.18.44.4,1,.66,1.7s.66,1.75,1.18,3.16a1.88,1.88,0,0,1,.26,1.44,7.14,7.14,0,0,1-.13,1.44,5.47,5.47,0,0,0-.13,1.05c.09.27.39.27.92,0a12.83,12.83,0,0,1-1.71,4.07,6.61,6.61,0,0,0-1.05,4.2q-3.54,4.72-7.87,9.72t-8.67,10.5q-4.32,5.38-8.4,11.29A70.17,70.17,0,0,0,311.76,67a1.6,1.6,0,0,0-1.18.39,7.4,7.4,0,0,0-.79.92,7.58,7.58,0,0,1-.66,1,1,1,0,0,1-1.05.52,14.56,14.56,0,0,1-3.15,8,45.29,45.29,0,0,1-5.64,6.3,7.64,7.64,0,0,1,.26,1.71,6.47,6.47,0,0,1-.13,1.31c-.09.44-.18.92-.26,1.44a13.82,13.82,0,0,0,.13,1.71,15.63,15.63,0,0,1-3.15,5.25,12.61,12.61,0,0,1-4.07,3.15,8.48,8.48,0,0,1-4.6.79A8.58,8.58,0,0,1,283,97.92a5,5,0,0,1-1.58-1.44A13,13,0,0,0,280,94.77a8.73,8.73,0,0,0-1.44-1.57,3.11,3.11,0,0,0-1.71-1,7.12,7.12,0,0,0,0-2.76,11.8,11.8,0,0,0-.52-2.62,8.43,8.43,0,0,0-.92-2c-.35-.53-.7-.79-1-.79q-.53-3.29-1.45-7.09t-1.7-7.74q-.79-3.81-1.32-7.48a37.27,37.27,0,0,1-.39-6.83,4.17,4.17,0,0,0-.66-2.76A10.49,10.49,0,0,1,267.91,49.09ZM343.39,94a6.68,6.68,0,0,1-1.57-2.5,4,4,0,0,0-2.1-2.36c-.18-1.31-.44-2.8-.79-4.46s-.57-3.5-.92-5.25-.48-3.64-.66-5.39a22.52,22.52,0,0,1,.27-5,9.43,9.43,0,0,1,.78-2.24c.44-.7.84-1.35,1.19-2a7.36,7.36,0,0,0,.91-2.1,3.48,3.48,0,0,0,.14-2.11,1,1,0,0,0,.91-.78c.18-.53.62-.7,1.32-.53.61-1.92,1.27-3.72,2-5.38s1.44-3.28,2.23-4.86,1.57-3.15,2.36-4.72a39.65,39.65,0,0,0,2.36-5.52,14,14,0,0,1-3.28-4.46,35.64,35.64,0,0,1-1.44-5c-.35-1.66-.61-3.32-.79-5a27.23,27.23,0,0,0-1-5.26,13.13,13.13,0,0,1,3.81-3.8,19.71,19.71,0,0,1,4.85-2.5,30.84,30.84,0,0,1,5.91-1.57q3.15-.66,6.7-1.45,6.3-2,11.28-3T387.5,5c3.15-.53,6.43-1,9.84-1.31s7.35-1.05,11.82-1.84c.08.26.22.39.39.39h.92a1.44,1.44,0,0,0,1.44.92,1.47,1.47,0,0,0-.13-.66V1.84a2.06,2.06,0,0,1,.66.13,4.26,4.26,0,0,1,.79.26.81.81,0,0,0,.65,0c.18-.17.22-.48.13-.92a14.76,14.76,0,0,0,4.07,4.6,34.13,34.13,0,0,0,5.52,3,5.84,5.84,0,0,1,0,1.7,4.71,4.71,0,0,1-.13,1,3.37,3.37,0,0,0-.14,1.05,7,7,0,0,0,.27,1.58,17.71,17.71,0,0,1-4.86,5.51,20.69,20.69,0,0,1-5.65,3,36.21,36.21,0,0,1-6.43,1.58c-2.18.35-4.46.74-6.82,1.18a52.45,52.45,0,0,0-7,1.57,29.12,29.12,0,0,0-7,3.15,4,4,0,0,0-2-.26,6.4,6.4,0,0,0-1.7.26c-.62.18-1.32.35-2.1.53a6.78,6.78,0,0,1-2.63,0A6.2,6.2,0,0,1,375,32.16c-.88.26-1.8.53-2.76.79a5.7,5.7,0,0,1,.53,2.89,7.15,7.15,0,0,0,.39,2.49,71,71,0,0,0,12.21,0q6.69-.66,13.12-.92a1,1,0,0,1-.13.92,1.31,1.31,0,0,0-.26.92,11.31,11.31,0,0,1,2.23,2l2.1,2.36a22.36,22.36,0,0,0,2.37,1.84,4.67,4.67,0,0,0,2.75.52,10.08,10.08,0,0,1,.92,2.76,5.31,5.31,0,0,1-.39,3q-2.62,1.71-5.12,3.54a52.84,52.84,0,0,1-5.25,3.15A28.56,28.56,0,0,1,392,60.78a21.48,21.48,0,0,1-6.82.78H384A1.92,1.92,0,0,1,382.9,61a7,7,0,0,1-3.54.52,6.54,6.54,0,0,0-3.54.4,12.86,12.86,0,0,0-4.34-.66,12.42,12.42,0,0,1-4.2-.66q-2.36,3.42-4.46,7.22a54.27,54.27,0,0,0-3.68,7.88,51.14,51.14,0,0,0,8.93.66q3.54-.14,6.7-.53l6.43-.79a59.62,59.62,0,0,1,8.27-.26,24,24,0,0,1,7.48-2.1,51.24,51.24,0,0,0,8-1.84,4.44,4.44,0,0,1,2.23,1.58,20.8,20.8,0,0,1,1.7,2.23,19.94,19.94,0,0,0,1.84,1.84,2.71,2.71,0,0,0,2.36.52,2.69,2.69,0,0,1,.79,1.58,14.8,14.8,0,0,1,.4,1.71,4.58,4.58,0,0,0,.65,1.31,1.75,1.75,0,0,0,1.45.26,24.87,24.87,0,0,1-5.65,7.88,22.88,22.88,0,0,1-7,4.33,45.22,45.22,0,0,1-8.67,2.23q-4.73.66-10.63,1.71a6.11,6.11,0,0,1-2.49,0,4.85,4.85,0,0,0-2-.4c-2.45.44-5.39.88-8.8,1.31a64,64,0,0,1-10.11.53,45.86,45.86,0,0,1-9.84-1.31A17.2,17.2,0,0,1,343.39,94Zm84.41-.4a5.93,5.93,0,0,1-.92-1.18,8.87,8.87,0,0,1-.66-2,17.34,17.34,0,0,1-2.89-5.12,27.48,27.48,0,0,1-1.44-5.9,30.17,30.17,0,0,1-.13-6.3,38.7,38.7,0,0,1,.92-5.91,25.31,25.31,0,0,0,.65-2.76Q424,62,424.65,59.6a10.19,10.19,0,0,1,2-4.07,4.4,4.4,0,0,1,.13-3.16c.43-1.13.87-2.18,1.31-3.15a6.12,6.12,0,0,0,.39-.65,5.57,5.57,0,0,1,.27-.66l3-8.79q1.57-4.34,3-8.27,2.63-7.23,5-14.18t4.47-14.83a6.61,6.61,0,0,1,1.83-1,4.33,4.33,0,0,1,.66-.26,2.82,2.82,0,0,1,.92-.14,49,49,0,0,0,6.43,2.76,22.33,22.33,0,0,0,6.43,1.18l2.23,2a22.27,22.27,0,0,1,2.89,4.2,7.89,7.89,0,0,1,.79,5.51,4.46,4.46,0,0,1-1.31,1.45,50.6,50.6,0,0,1-1.71,5.38q-.92,2.23-1.84,4.33c-.7,1.58-1.35,3.15-2,4.73A34.12,34.12,0,0,0,458,37.67a5.92,5.92,0,0,0-1.05,1.58,7.28,7.28,0,0,1-.4,1.31c-.17.53-.39,1.1-.65,1.71a4.63,4.63,0,0,1-1.18,1.44,28,28,0,0,1-1.58,6.7l-2.1,5q-1.83,4.61-3.41,9.19a35.82,35.82,0,0,0-1.84,10.24,12.08,12.08,0,0,1,2.89-.39A10.29,10.29,0,0,1,452,75a28.86,28.86,0,0,1,10.24-2.88q5.64-.52,11.16-.66a83.8,83.8,0,0,0,8.53-.4,9.62,9.62,0,0,0,1.7,1.06h2.11a5.47,5.47,0,0,1,1.05.13,12.57,12.57,0,0,0,3.54,2.62c1.14.44,2.36.88,3.67,1.31,1.14.44,2.24.92,3.29,1.45a13.75,13.75,0,0,1,3.28,1.84l1.18,6.69c.7,1,1,1.62.92,2a3.26,3.26,0,0,1-.53,1.84l.27,1.7a8.5,8.5,0,0,0-3.29,1.18,12.58,12.58,0,0,0-1.7,1.45c-1,.09-1.88.13-2.76.13a19.36,19.36,0,0,0-5.38.79,25.06,25.06,0,0,0-8.66-1.45c-1.23,0-2.5,0-3.81.14s-2.45.21-3.68.39l-3.93.52c-1.32.09-2.63.14-3.94.14-1,.17-1.8.3-2.23.39a8.24,8.24,0,0,0-1.32.39q-4.46,1.45-9.71,2.89A38.12,38.12,0,0,1,441.58,100q-7.74,0-12.47-3.94a11.59,11.59,0,0,0-.79-1.58A8.39,8.39,0,0,1,427.8,93.59ZM502,86l1.71-1.31.13-2.76q3.29-8,6.69-15.36,3.56-7.35,7.36-15.09,1.17-2.51,2.36-5t2.49-5.12a4.19,4.19,0,0,1-.13-1.05,4.79,4.79,0,0,1,.26-1.45,37.74,37.74,0,0,0,2.89-4.72Q526.91,32,528,29.8q1.18-2.62,2.5-5.25A31.33,31.33,0,0,1,534,19.43l.92-1.32,1.44.14a5,5,0,0,1,1-.4,4.39,4.39,0,0,1,1.58-.26l2.36.39A22.73,22.73,0,0,0,549,12.34a74.16,74.16,0,0,0,6.82-9.06l1.58-2.23,2.1,1.31a8.21,8.21,0,0,0,2.1.79c1,.26,2,.57,3,.92,1.83.44,3.63,1,5.38,1.57A9.54,9.54,0,0,1,574,7.88l.65,1.18c.18,1,.31,1.84.4,2.62s.35,1.58.52,2.37q.52,2.75.92,5.51a56.14,56.14,0,0,1,.53,5.91c.43,1.75.83,3.54,1.18,5.38s.83,3.5,1.18,5.25q.66,3.81,1.44,7.35A42.17,42.17,0,0,0,583,50a5.49,5.49,0,0,1,1.58.13,11.35,11.35,0,0,1,3.67-.78l1.71-.14.53,1.58a5,5,0,0,0,.65.79,8.33,8.33,0,0,0,.92.78,5.19,5.19,0,0,1,3,.92,9.77,9.77,0,0,1,1.71,1.32l.65.65a6.46,6.46,0,0,0,.66.4l2.36.92-1.31,2.49a18.89,18.89,0,0,1-4.46,5.38,25.82,25.82,0,0,1-6.57,4.33,6.17,6.17,0,0,1,.27,1.71c.08.52.21,1.14.39,1.84a53.69,53.69,0,0,1,.79,5.51,21.5,21.5,0,0,1,0,5.78,32.17,32.17,0,0,1-3.15,6.17,24.18,24.18,0,0,1-4.2,4.85,23.21,23.21,0,0,1-5.39,3.55,17.54,17.54,0,0,1-6.3,1.44,9.9,9.9,0,0,1-2.75-.92c-.53-.35-1-.7-1.45-1a8.85,8.85,0,0,0-1.7-1l-1.71-.79.52-2a1.91,1.91,0,0,0-.13-1.84,8.24,8.24,0,0,0-1.83-2.1,9.59,9.59,0,0,1-.92-.79,10.8,10.8,0,0,0-.92-1l-2.63-3,4.33-1.18q3.94-1,5.25-2.63t1.06-5.9a12.56,12.56,0,0,0-5.39-.13c-1.4.26-2.8.56-4.2.91q-3,.8-5.9,1.45a35.38,35.38,0,0,1-6.3.52,30.65,30.65,0,0,1-4.73-.39l-1.44-.13-.4-1.45c0-.17-.13-.35-.39-.52a4.76,4.76,0,0,0-.53-.66c-.43-.52-1-1.22-1.57-2.1a3.79,3.79,0,0,1-.4-3.28,6.64,6.64,0,0,1-1.05-3c-.35.7-.65,1.4-.92,2.1s-.34,1.23-.52,1.84l-.52,1.71-1.71.26a3,3,0,0,0-.53.79,1.26,1.26,0,0,0,0,.78l.53,1.45-1.31,1.18a2.59,2.59,0,0,1-.66.66,4.75,4.75,0,0,0-.66.52,14.1,14.1,0,0,1-.78,2.76c-.27.87-.57,1.75-.92,2.62-.44,1.4-.88,2.76-1.32,4.07a15.24,15.24,0,0,0-.52,3.94l-.53,1.71a4.14,4.14,0,0,1-1.7,1.57,18.56,18.56,0,0,1-1.84.92,5.6,5.6,0,0,0-1.84,1l-.39,1.71-2,.26c-1.14.26-2,.44-2.49.52a8,8,0,0,1-1.58.14L511.41,99a26.82,26.82,0,0,0-2.62-2.36A8.4,8.4,0,0,0,506.56,95L505.77,94a6.89,6.89,0,0,1-.66-1.84,13.41,13.41,0,0,0-.39-1.84,5.28,5.28,0,0,0-.79-2.36Zm41.88-34.13q-1.85,2.63-3.55,5.51a13.3,13.3,0,0,1,1.71-.13,12.75,12.75,0,0,0,1.84-.13q4.59-.26,8.53-.66c2.62-.26,5.47-.7,8.53-1.31q-1-4.86-2.36-9.84-1.18-5.13-2.63-10.24l-.65,1.31A90,90,0,0,0,549,44a62.75,62.75,0,0,0-5,7.75Zm62.74,51.06a22.55,22.55,0,0,1-7.48-9.32,15,15,0,0,1-.66-11.15,21.57,21.57,0,0,1,2-7.75,47.11,47.11,0,0,1,4.33-7.22A66.63,66.63,0,0,1,610.39,61L616,55.39a6.43,6.43,0,0,1,1.84-2.75,33.18,33.18,0,0,1,2.76-2.23c1-.79,2-1.62,3-2.5a10.08,10.08,0,0,0,2.49-3,13.76,13.76,0,0,0-1.71-3.67c-.78-1.23-1.66-2.45-2.62-3.68s-2-2.45-3-3.67a41.51,41.51,0,0,1-2.89-3.81q-.14-.66-1-.39a1.1,1.1,0,0,1-1.18-.13,7.82,7.82,0,0,0-.92-4.47,12,12,0,0,0-2.89-4.2A23.17,23.17,0,0,0,611,16.8a9.51,9.51,0,0,0-.26-5.38A5.91,5.91,0,0,1,611,8.93c.35-.79.7-1.54,1.05-2.24a11.16,11.16,0,0,0,.79-2,3.44,3.44,0,0,0-.13-2.1,7.81,7.81,0,0,1,3.55.26,13.28,13.28,0,0,1,3,1c1,.35,1.84.65,2.63.92a3.49,3.49,0,0,0,2.49-.13,2,2,0,0,0-.13,1.18l.53.52a6.71,6.71,0,0,1,.65.26.61.61,0,0,1,.4.66,15.27,15.27,0,0,1,5.38,3.41A60.63,60.63,0,0,1,637,16.54a78.31,78.31,0,0,1,5,6.3q2.24,3,3.29,4.73c2.53-1.58,5.25-3.46,8.13-5.65s6-4.42,9.06-6.69,6.3-4.42,9.45-6.44a54.8,54.8,0,0,1,9.45-5,10.42,10.42,0,0,1,4.07,3,15.82,15.82,0,0,1,2.5,3.93,33.74,33.74,0,0,1,1.83,4.07,13.85,13.85,0,0,0,2.37,3.55,26.41,26.41,0,0,1-2.76,4.46,10.65,10.65,0,0,0-2.1,4.2,52.25,52.25,0,0,0-7.88,4.2q-3.93,2.49-10,6.83T655.15,49.49a28.66,28.66,0,0,1,3.15,4.2c.88,1.31,1.58,2.45,2.1,3.41a24.69,24.69,0,0,1,1.44,3.15,9.08,9.08,0,0,1,2.37,2.5,32.51,32.51,0,0,1,1.7,3,31.13,31.13,0,0,0,2,2.76,7.35,7.35,0,0,0,2.76,2.1A33.71,33.71,0,0,0,672,75.08c.53,1.32,1,2.63,1.45,3.94A23.87,23.87,0,0,1,674.58,83a11,11,0,0,1,.39,3.81,15.23,15.23,0,0,1-3.15,5.9,15.4,15.4,0,0,0-3,4.86c-1,.26-1.92.57-2.89.92a5.28,5.28,0,0,0-2.23,1.31l-8.92-6.3a63,63,0,0,0-6.83-15.09,126.65,126.65,0,0,0-8.66-12.47,114.47,114.47,0,0,0-12.08,10.76,103.15,103.15,0,0,0-10.5,12.6,38.12,38.12,0,0,1-.79,5.51,9,9,0,0,1-1.7,3.55,10.85,10.85,0,0,1-3,2.49A33.47,33.47,0,0,1,606.58,102.91Z"/></g></g></svg>