<svg id="Capa_1" enable-background="new 0 0 512 512" height="512" viewBox="0 0 512 512" width="512" xmlns="http://www.w3.org/2000/svg"><g><path d="m391 271v241h-270v-241h90l30 30h30l30-30z" fill="#fabe2c"/><path d="m391 271v241h-135v-211h15l30-30z" fill="#ff9100"/><path d="m211 271h90v120h-90z" fill="#ffe666"/><path d="m256 271h45v120h-45z" fill="#fabe2c"/><path d="m241 421h90v30h-90z" fill="#47568c"/><path d="m256 421h75v30h-75z" fill="#29376d"/><path d="m256 0h-256v241h226l30 30 30-30h226v-241z" fill="#f0f7ff"/><path d="m512 241v-241h-256v271l30-30z" fill="#dfe7f4"/><path d="m165.441 88.202-37.441 12.155v-39.357h-30v39.357l-37.441-12.155-9.258 28.535 37.428 12.151-23.131 31.824 24.257 17.637 23.145-31.841 23.145 31.841 24.257-17.637-23.131-31.824 37.428-12.151z" fill="#fabe2c"/><path d="m460.699 116.737-9.258-28.535-37.441 12.155v-39.357h-30v39.357l-37.441-12.155-9.258 28.535 37.428 12.151-23.131 31.824 24.257 17.637 23.145-31.841 23.145 31.841 24.257-17.637-23.131-31.824z" fill="#ff9100"/><path d="m317.699 116.737-9.258-28.535-37.441 12.155v-39.357h-15-15v39.357l-37.441-12.155-9.258 28.535 37.428 12.151-23.131 31.824 24.257 17.637 23.145-31.841 23.145 31.841 24.257-17.637-23.131-31.824z" fill="#fabe2c"/><path d="m303.402 160.712-23.131-31.824 37.428-12.151-9.258-28.535-37.441 12.155v-39.357h-15v85.508l23.145 31.841z" fill="#ff9100"/></g></svg>