<svg width="271" height="41" viewBox="0 0 271 41" fill="none" xmlns="http://www.w3.org/2000/svg">
<g clip-path="url(#clip0)">
<path d="M1.12736 9.53693C1.10083 9.28716 1.03078 9.04396 0.920376 8.81834C0.853984 8.58011 0.768065 8.32236 0.666524 8.03727C0.487497 7.60655 0.333625 7.1658 0.205686 6.71725C0.058969 6.1645 -0.0106848 5.59413 -0.00130008 5.02232C0.0325847 4.76475 0.120415 4.51723 0.256457 4.29592C0.342 4.15401 0.444272 4.0229 0.561078 3.90538L0.779781 2.97199H1.56086C1.81995 3.00479 2.08079 3.02174 2.34194 3.02276H3.22847C4.53027 3.02276 5.86332 2.97199 7.22761 2.87045C8.5919 2.76891 9.99263 2.64915 11.4298 2.51116C12.992 2.30808 14.6843 2.15447 16.5068 2.05032C16.6787 1.65979 16.7802 1.43718 16.8154 1.33173C16.8906 1.21636 16.9584 1.09635 17.0185 0.972439L17.573 0.66782C18.3541 0.633973 18.9009 0.735513 19.2133 0.972439C19.4816 1.14201 19.7237 1.34989 19.9319 1.58949C20.8223 1.51919 21.7284 1.43718 22.6657 1.33173C23.603 1.22629 24.5442 1.05836 25.5361 0.921669L29.6798 0.410065C31.0402 0.240831 32.4096 0.154753 33.7805 0.15231C34.3624 0.15231 34.9091 0.15231 35.4207 0.206985C35.9323 0.26166 36.4322 0.288998 36.9087 0.359295L37.5257 0.820129C37.6658 1.06449 37.8379 1.28908 38.0374 1.48795C38.2617 1.70945 38.5019 1.91437 38.7559 2.10109C39.3043 2.55436 39.7972 3.07084 40.2244 3.63981C40.7399 4.25686 40.9274 5.159 40.7907 6.37358L40.5329 6.88518C40.3758 7.03781 40.2045 7.17512 40.0213 7.29525L39.5097 7.96306H38.959C38.6946 7.94866 38.4299 7.98308 38.1779 8.0646C37.9675 8.11251 37.7622 8.18052 37.5648 8.26768C37.4281 8.33798 37.2719 8.40437 37.104 8.47467C36.9126 8.51521 36.7236 8.56606 36.5377 8.62698C36.1471 8.59574 35.8738 8.57621 35.6668 8.57621H34.9599C33.8464 8.58228 32.7342 8.65139 31.6286 8.78319C30.4335 8.91988 29.2853 9.07219 28.145 9.24403C27.3222 9.34557 26.5411 9.44841 25.8017 9.55255C25.048 9.61895 24.3645 9.68924 23.7514 9.75563C23.4077 10.6461 23.0992 11.4271 22.8258 12.0989C22.5524 12.7706 22.2621 13.454 21.9549 14.1492C21.6373 14.8313 21.3483 15.5317 21.0879 16.2503C20.786 17.0049 20.5252 17.7754 20.3068 18.5584C19.9222 19.1299 19.5802 19.7291 19.2836 20.3509C18.9859 20.9595 18.7592 21.6003 18.608 22.2607C18.112 22.814 17.7286 23.4587 17.4793 24.1587C17.2762 24.8421 17.0888 25.4201 16.9169 25.9005L16.7099 26.6815C16.5308 26.8465 16.3757 27.0358 16.2491 27.2439C16.1998 27.4042 16.1188 27.553 16.0109 27.6813C15.9083 28.1202 15.7699 28.55 15.5969 28.9662C15.5305 29.1341 15.4602 29.3216 15.3938 29.5286C15.3332 29.6493 15.3153 29.7869 15.343 29.9191C15.2985 30.2269 15.1937 30.5228 15.0345 30.79C15.0351 30.9967 15.0181 31.2032 14.9837 31.407C14.9486 31.6101 14.9134 31.7976 14.8822 32.0202C14.817 32.2395 14.7648 32.4625 14.726 32.688C14.6943 32.8599 14.7119 33.0373 14.7768 33.1996L15.0853 33.5902C15.1966 33.7467 15.2835 33.9192 15.343 34.1018C15.4137 34.1737 15.5008 34.2273 15.5969 34.258C15.6942 34.2864 15.7828 34.3387 15.8546 34.4103C16.0702 34.6192 16.3414 34.7615 16.6357 34.8204L17.1473 35.4374C17.353 36.6663 17.1656 37.6231 16.585 38.3078C15.9679 39.0889 14.9447 39.4795 13.5075 39.4795L12.7928 39.4248C12.6444 39.2876 12.5132 39.1329 12.4023 38.964C12.0937 38.8273 11.836 38.7101 11.6212 38.6047C11.3872 38.517 11.1883 38.3551 11.0549 38.1438C11.0217 38.1106 10.982 38.0845 10.9384 38.067C10.8947 38.0496 10.848 38.0412 10.8011 38.0423C10.7044 38.0123 10.6162 37.9602 10.5433 37.89C10.2541 37.8102 9.97787 37.6892 9.72316 37.5307L9.16078 37.2222C9.19203 36.8824 9.21155 36.6403 9.21155 36.5036C8.93596 36.1246 8.71142 35.7109 8.54373 35.2734C8.40704 34.8282 8.28597 34.3673 8.18443 33.8909C8.08289 33.5003 7.98135 33.1723 7.8759 32.8638C7.81313 32.5688 7.69087 32.2897 7.51661 32.0436C7.40668 30.0209 7.63234 27.994 8.18443 26.045C8.70515 24.4047 9.26883 22.8165 9.87547 21.2804C10.2191 20.4603 10.5446 19.6219 10.8518 18.7653C11.159 17.9088 11.4324 17.0379 11.672 16.1526L12.1992 15.6215C12.3424 15.4889 12.4965 15.3687 12.66 15.2622C12.6591 14.8223 12.7467 14.3866 12.9178 13.9813C13.0896 13.536 13.2771 13.0908 13.4802 12.6456C13.6146 12.3789 13.7345 12.1051 13.8395 11.8255C13.9597 11.5997 14.0465 11.3576 14.0972 11.1069C13.8735 11.1063 13.6501 11.1246 13.4294 11.1616C13.2408 11.1624 13.0527 11.1794 12.867 11.2123C12.4471 11.311 12.0174 11.3621 11.586 11.3646C11.3679 11.3754 11.1492 11.3623 10.9338 11.3256C10.6889 11.4526 10.4252 11.5397 10.1528 11.5834H8.20005C7.86906 11.5701 7.53869 11.6218 7.22761 11.7357H4.61098C4.3031 11.7344 3.99547 11.7174 3.68931 11.6849C3.31221 11.6006 2.9492 11.4625 2.61142 11.2748L2.25602 10.8648C2.04904 10.4742 1.86548 10.2829 1.68974 10.2477L1.12736 10.0954V9.53693ZM33.3196 34.0393C33.1517 34.0744 32.9955 33.9534 32.8588 33.68C32.7316 33.3781 32.5828 33.0857 32.4136 32.8052H32.9603C32.7312 32.1475 32.6616 31.4447 32.7572 30.7548C32.8939 30.1066 33.0462 29.4895 33.2181 28.9076C33.3899 28.3257 33.5266 27.7126 33.6086 27.1658C33.7477 26.5726 33.7014 25.951 33.4758 25.385C33.6438 25.4865 33.7648 25.4513 33.8351 25.2795C33.9424 25.0543 34.011 24.8127 34.0382 24.5648C34.1077 24.2614 34.1249 23.9484 34.089 23.6392C34.094 23.365 34.077 23.0907 34.0382 22.8191C34.483 21.7563 34.8269 20.6541 35.0653 19.5269C35.3257 18.3969 35.5639 17.2865 35.78 16.1956C35.987 15.0669 36.2096 13.993 36.4479 12.9659C36.7127 11.9493 37.0615 10.9566 37.4906 9.99777C37.9945 9.93236 38.5068 10.0025 38.9747 10.2008C39.3999 10.2933 39.7804 10.5291 40.0525 10.8687C41.1348 10.0235 42.0851 9.02183 42.8722 7.89667C43.6924 6.73287 44.5125 5.60422 45.3326 4.51071C46.1651 3.40702 47.129 2.40899 48.2031 1.53872C49.3373 0.655731 50.7036 0.121173 52.1359 0C52.956 0.583203 53.879 1.21587 54.9048 1.89801C55.9099 2.52699 56.7666 3.3664 57.416 4.3584C57.689 4.52756 57.95 4.71547 58.1971 4.92078L59.0172 5.43238V6.21346C59.4988 6.66971 59.8955 7.2079 60.1888 7.80294C60.5396 8.40605 60.8313 9.04168 61.0597 9.70096C61.3331 10.3493 61.5869 11.0171 61.8408 11.7005C62.0657 12.3531 62.3398 12.9876 62.6609 13.5985C62.5948 13.7788 62.5592 13.9689 62.5555 14.1609C62.5906 14.2976 62.6258 14.4499 62.6609 14.6217C62.7349 14.7845 62.7861 14.9566 62.8132 15.1333C62.8517 15.3538 62.8687 15.5774 62.864 15.8012C62.8006 17.4353 62.1663 18.9955 61.0714 20.2103C59.9881 21.3509 58.7005 22.2782 57.2754 22.9441C55.7477 23.6504 54.1726 24.2494 52.5616 24.7367C51.0099 25.1726 49.4866 25.7035 48 26.3262C47.9961 26.3537 47.9987 26.3818 48.0075 26.4083C48.0163 26.4347 48.0312 26.4587 48.0509 26.4784C48.0706 26.4981 48.0946 26.5129 48.121 26.5218C48.1474 26.5306 48.1755 26.5331 48.2031 26.5292C48.375 26.5292 48.4257 26.6347 48.3554 26.8378C49.3813 27.4548 50.1623 27.9508 50.6987 28.3257C51.235 28.7006 51.7649 29.0222 52.2882 29.2903C52.8182 29.5381 53.3666 29.7444 53.9284 29.9074C54.5455 30.0792 55.3826 30.2836 56.4396 30.5205C57.5019 30.7627 58.322 30.9657 58.9039 31.1376L60.5442 31.4969C61.0207 31.5633 61.5323 31.6336 62.079 31.6999C62.6258 31.7663 63.3639 31.8562 64.2856 31.9577C64.6709 32.3373 64.9868 32.7814 65.219 33.2699C65.4505 33.7605 65.6222 34.2771 65.7306 34.8086C65.8346 35.2978 65.8518 35.8015 65.7813 36.2966C65.7745 36.6881 65.637 37.0661 65.3908 37.3706C65.4004 37.4309 65.4321 37.4855 65.4797 37.5238C65.5274 37.562 65.5876 37.5812 65.6486 37.5775C65.8173 37.5424 65.9915 37.5424 66.1602 37.5775C65.9239 37.7474 65.7169 37.9545 65.547 38.1907L65.0354 38.9093C64.8561 39.1549 64.6491 39.379 64.4184 39.5771C64.1958 39.7896 63.9054 39.9168 63.5982 39.9364C62.3693 40.4128 60.7968 40.4298 58.8805 39.9872C56.3894 39.3638 53.9409 38.5811 51.5501 37.6439C50.0816 37.0972 48.8853 36.6012 47.961 36.156C47.0367 35.7108 46.2335 35.2838 45.5514 34.875C44.8947 34.4499 44.2623 33.9883 43.6572 33.4925C43.0766 32.9718 42.4101 32.373 41.6577 31.696C41.6092 31.7116 41.5651 31.7385 41.5291 31.7745C41.4931 31.8105 41.4662 31.8546 41.4507 31.903C41.4537 31.9495 41.4399 31.9955 41.412 32.0327C41.3841 32.0699 41.3438 32.096 41.2984 32.1061C41.1835 33.2497 40.9074 34.3712 40.4782 35.4374C40.0866 36.3754 39.5689 37.2557 38.9395 38.054C38.3927 37.9525 38.0178 38.0032 37.8108 38.2063C37.6066 38.4286 37.3663 38.6148 37.1001 38.757C36.8421 38.8348 36.5647 38.8168 36.319 38.7062C36.1551 38.64 36.0003 38.5534 35.8581 38.4484C35.7087 38.3376 35.5536 38.2346 35.3934 38.1399C35.1365 38.0242 34.8506 37.9888 34.5733 38.0384C34.4717 37.7299 34.3702 37.4409 34.2686 37.1675C34.1671 36.8941 33.8781 36.7223 33.4485 36.7769C33.545 36.5286 33.5798 36.2606 33.55 35.9959C33.522 35.7852 33.4709 35.5783 33.3977 35.3788C33.3274 35.1757 33.261 34.9883 33.1907 34.7657C33.1683 34.5164 33.2128 34.2656 33.3196 34.0393ZM50.4448 10.607C50.0059 11.2509 49.5078 11.8524 48.9569 12.4035C48.4101 12.9242 47.8634 13.4709 47.3166 14.0437C46.7905 14.6074 46.3257 15.2253 45.9302 15.8871C45.4953 16.6065 45.1999 17.4015 45.0593 18.2303C46.6067 18.0337 48.1225 17.6399 49.57 17.0587L54.03 15.231C53.9235 14.105 53.4564 13.0435 52.6982 12.2043C52.0913 11.494 51.3168 10.9463 50.4448 10.6109V10.607ZM64.5043 33.5745L65.1721 33.0629L65.2229 31.985C66.0769 29.9022 66.9491 27.9026 67.8395 25.9864C68.7299 24.0701 69.6789 22.107 70.6865 20.0971C70.9912 19.4436 71.2984 18.7927 71.6082 18.1444C71.948 17.4961 72.276 16.8283 72.5807 16.1448C72.5484 16.0105 72.5314 15.8729 72.5299 15.7348C72.5343 15.5419 72.5686 15.3509 72.6314 15.1685C73.0523 14.5825 73.4295 13.9664 73.7601 13.3251C74.0699 12.7784 74.3602 12.2147 74.631 11.6341C74.9408 10.952 75.2663 10.2685 75.6074 9.5838C76.0007 8.87304 76.4638 8.20322 76.9899 7.58424L77.3492 7.06873L77.9115 7.12341C78.0357 7.05743 78.1667 7.00505 78.3021 6.96719C78.4998 6.8958 78.709 6.86139 78.9191 6.86565L79.8408 7.01796C80.9766 6.50108 81.9906 5.75054 82.8167 4.81533C83.8096 3.70853 84.7157 2.52691 85.5271 1.28096L86.1441 0.410065L86.9643 0.921669C87.2229 1.06017 87.4986 1.16391 87.7844 1.23019C88.1749 1.33173 88.5655 1.4528 88.956 1.58949C89.6663 1.75842 90.3675 1.96306 91.0571 2.20263C91.6513 2.35789 92.1976 2.65852 92.6466 3.07744L92.9005 3.53827C92.9708 3.92881 93.0216 4.25686 93.0567 4.56148C93.0919 4.8661 93.1934 5.17853 93.2598 5.48706C93.3978 6.20304 93.5175 6.92033 93.6191 7.63892C93.7307 8.40386 93.7998 9.1744 93.8261 9.947C93.9979 10.6317 94.1515 11.3321 94.2869 12.0481C94.4223 12.7641 94.5759 13.4475 94.7477 14.0984C94.9196 15.0904 95.107 16.0472 95.3101 16.9689C95.5132 17.8438 95.7875 18.7006 96.1303 19.5308C96.3373 19.5178 96.5452 19.5349 96.7473 19.5816C97.2061 19.4008 97.6918 19.2978 98.1845 19.2769L98.8484 19.2223L99.0554 19.8393C99.1293 19.9506 99.2143 20.054 99.3093 20.1478C99.4224 20.257 99.5424 20.3587 99.6686 20.4525C100.087 20.4485 100.496 20.574 100.84 20.8118C101.081 20.9584 101.305 21.1313 101.508 21.3273L101.762 21.5811C101.867 21.6514 101.953 21.7022 102.02 21.7373L102.941 22.0966L102.43 23.0691C101.985 23.8717 101.394 24.5842 100.688 25.1702C99.924 25.8616 99.0587 26.4319 98.122 26.8612C98.1884 27.0777 98.2239 27.3026 98.2275 27.529C98.2587 27.7321 98.3095 27.9742 98.3798 28.2476C98.5198 28.9591 98.6227 29.6773 98.6883 30.3995C98.7899 31.1485 98.7899 31.9078 98.6883 32.6568C98.3662 33.5019 97.9537 34.3098 97.4581 35.0664C96.9979 35.7678 96.4463 36.4048 95.8178 36.9605C95.1885 37.5166 94.4854 37.9832 93.7284 38.3469C92.9487 38.6847 92.1132 38.8754 91.2641 38.9093C90.8904 38.8429 90.5286 38.7218 90.1901 38.55C89.9832 38.4133 89.7996 38.2766 89.6239 38.1594C89.4178 38.0049 89.1951 37.8739 88.9599 37.7689L88.2609 37.4213L88.4678 36.6403C88.5191 36.5254 88.541 36.3995 88.5314 36.274C88.5219 36.1486 88.4812 36.0275 88.4132 35.9217C88.2232 35.6097 87.9815 35.3324 87.6985 35.1015C87.5723 35.0064 87.4523 34.9033 87.3392 34.793C87.2288 34.6545 87.1087 34.524 86.9799 34.4025L85.9528 33.2309L87.6477 32.77C88.6709 32.5097 89.3544 32.1673 89.6981 31.7429C90.0417 31.3185 90.1784 30.5505 90.1081 29.4387C89.4184 29.2696 88.7002 29.2523 88.0031 29.388C87.4564 29.4895 86.9096 29.6067 86.3628 29.7434C85.5818 29.9516 84.8137 30.1404 84.0587 30.3096C83.2462 30.4506 82.4228 30.5186 81.5982 30.5127C80.9795 30.5098 80.3619 30.4588 79.751 30.3604L79.1886 30.3096L79.0324 29.7434C79.0324 29.677 78.9816 29.6067 78.8801 29.5403C78.8189 29.4484 78.7496 29.3621 78.6731 29.2825C78.5052 29.0794 78.2826 28.8061 78.06 28.4624C77.9389 28.2745 77.8619 28.0617 77.8349 27.8398C77.8078 27.618 77.8314 27.3929 77.9037 27.1814C77.6742 26.8298 77.5335 26.4278 77.4937 26.0098C77.3605 26.2766 77.2419 26.5504 77.1383 26.8299C77.068 27.0721 77.0016 27.3103 76.9313 27.5485L76.7282 28.2164L76.0604 28.3179C75.9754 28.4091 75.9055 28.5132 75.8534 28.6264C75.8212 28.7254 75.8212 28.8321 75.8534 28.931L76.0604 29.4973L75.5488 29.9582C75.4792 30.059 75.3918 30.1463 75.291 30.2159C75.1993 30.2759 75.113 30.3438 75.0333 30.419C74.9686 30.7877 74.8666 31.1489 74.7286 31.4969C74.6232 31.8366 74.506 32.1803 74.3693 32.5201C74.1975 33.0668 74.0257 33.598 73.8577 34.1096C73.72 34.6109 73.6504 35.1284 73.6507 35.6483L73.4438 36.3161C73.2852 36.5794 73.0549 36.7921 72.7798 36.9292C72.5475 37.063 72.3076 37.1829 72.0612 37.2885C71.7997 37.3733 71.5561 37.5057 71.3426 37.6791L71.1903 38.3469L70.4093 38.4484C69.964 38.55 69.6282 38.6203 69.4368 38.6515C69.2334 38.6901 69.0267 38.7085 68.8198 38.7062L68.1793 38.6632C67.8642 38.3304 67.5276 38.0186 67.1717 37.7299C66.9132 37.4724 66.6136 37.2599 66.2851 37.1011L65.9766 36.7105C65.857 36.4845 65.7702 36.2425 65.7189 35.992C65.685 35.7492 65.6341 35.509 65.5666 35.2734C65.5362 34.9513 65.4305 34.641 65.258 34.3673L64.5043 33.5745ZM80.8406 20.2494C80.3615 20.9341 79.8994 21.6514 79.4542 22.4012C79.6755 22.3701 79.8985 22.3532 80.122 22.3505C80.3624 22.3509 80.6026 22.334 80.8406 22.2997C82.0357 22.232 83.1461 22.1461 84.1719 22.042C85.1951 21.9404 86.3082 21.7686 87.5032 21.5303C87.2429 20.265 86.9356 18.984 86.5815 17.6875C86.2717 16.3518 85.9293 15.0188 85.5544 13.6883L85.3006 14.2C84.4266 15.1448 83.6053 16.137 82.8402 17.1719C82.1159 18.1316 81.4632 19.1432 80.8875 20.1986L80.8406 20.2494ZM104.625 19.1715C104.455 18.1905 104.404 17.1927 104.472 16.1995C104.543 15.1724 104.574 14.1843 104.574 13.2275C104.571 12.2491 104.503 11.2719 104.371 10.3024C104.269 9.24403 104.164 8.23644 104.062 7.27962C103.961 6.32281 103.961 5.45191 103.961 4.66693C103.96 4.01727 104.082 3.37329 104.32 2.76891C104.559 2.29958 104.91 1.89696 105.343 1.5973C105.758 1.28378 106.15 0.940501 106.515 0.570185C106.928 0.63088 107.326 0.770072 107.686 0.98025C108.048 1.14052 108.364 1.38731 108.608 1.69884C108.861 1.94225 109.054 2.24012 109.174 2.56974C109.308 2.85908 109.343 3.18394 109.276 3.49531C110.13 4.00543 110.837 4.72964 111.326 5.59641C111.886 6.4819 112.301 7.45083 112.556 8.46686C112.872 9.53669 113.079 10.6358 113.173 11.7474C113.311 12.9112 113.413 14.0555 113.478 15.1802C113.584 16.3089 113.666 17.3867 113.736 18.41C113.817 19.2972 113.989 20.1739 114.247 21.0266C115.752 18.8395 117.018 16.909 118.043 15.2349C119.069 13.5608 120.128 11.9374 121.219 10.3649C122.281 8.80272 123.46 7.21323 124.757 5.59641C126.093 3.98999 127.785 2.1779 129.834 0.16012C130.184 0.205784 130.527 0.292292 130.857 0.417875L131.576 0.7264C131.829 0.832566 132.09 0.917476 132.357 0.98025C132.734 1.01232 133.113 0.995256 133.485 0.92948C133.653 1.33954 133.774 1.64807 133.845 1.85505C133.946 2.0101 134.033 2.17341 134.106 2.34323C134.177 2.51506 134.263 2.73376 134.364 3.00714C134.466 3.28052 134.622 3.69058 134.825 4.24124C134.879 4.32343 134.915 4.41555 134.933 4.51214C134.95 4.60874 134.948 4.70785 134.927 4.80361C134.929 4.99231 134.912 5.18073 134.876 5.36599C134.846 5.50072 134.829 5.63805 134.825 5.77605C134.86 5.8815 134.977 5.8815 135.184 5.77605C135.055 6.34049 134.829 6.87828 134.516 7.36554C134.2 7.85076 134.055 8.42852 134.106 9.0058C133.185 10.2347 132.16 11.5 131.033 12.8018C129.906 14.1036 128.777 15.4705 127.647 16.9025C126.522 18.3032 125.429 19.7729 124.366 21.3116C123.334 22.8378 122.459 24.4642 121.754 26.166C121.671 26.1594 121.587 26.1695 121.508 26.1956C121.429 26.2218 121.356 26.2635 121.293 26.3183C121.18 26.4295 121.077 26.5496 120.984 26.6776C120.909 26.8144 120.823 26.945 120.727 27.0682C120.688 27.1409 120.628 27.1996 120.554 27.2361C120.481 27.2725 120.397 27.2848 120.316 27.2713C120.23 28.4128 119.801 29.5017 119.086 30.3956C118.43 31.2826 117.693 32.1063 116.884 32.8559C116.943 33.074 116.977 33.298 116.985 33.5238C116.986 33.6956 116.969 33.867 116.934 34.0354C116.899 34.2072 116.864 34.3947 116.833 34.5977C116.836 34.8212 116.853 35.0442 116.884 35.2656C116.613 36.0234 116.195 36.7202 115.653 37.3159C115.214 37.8309 114.673 38.2496 114.064 38.5461C113.506 38.8149 112.883 38.9218 112.267 38.8546C111.639 38.8181 111.035 38.6056 110.522 38.2415C110.278 38.1007 110.067 37.9088 109.905 37.6791C109.739 37.4411 109.554 37.2176 109.35 37.0113C109.188 36.7847 108.999 36.5788 108.788 36.3981C108.614 36.1986 108.379 36.0615 108.12 36.0076C108.19 35.6517 108.19 35.2856 108.12 34.9297C108.091 34.582 108.023 34.2388 107.917 33.9065C107.832 33.6315 107.711 33.3689 107.557 33.1254C107.421 32.9184 107.284 32.8169 107.167 32.8169C107.029 31.9603 106.84 31.0373 106.601 30.048C106.361 29.0586 106.14 28.051 105.937 27.0252C105.731 26.0332 105.559 25.0595 105.421 24.104C105.289 23.2214 105.238 22.3285 105.269 21.4366C105.312 21.0582 105.22 20.6768 105.011 20.3587C104.824 19.9848 104.695 19.5845 104.628 19.1715H104.625ZM134.106 36.7105C133.832 36.4349 133.622 36.1013 133.493 35.7342C133.426 35.5329 133.319 35.3474 133.178 35.189C133.037 35.0305 132.865 34.9024 132.673 34.8125C132.603 34.3009 132.501 33.719 132.365 33.0707C132.228 32.4224 132.142 31.7039 132.005 31.0204C131.869 30.337 131.818 29.5989 131.748 28.9154C131.71 28.2626 131.745 27.6077 131.853 26.9627C131.917 26.6595 132.02 26.3655 132.158 26.0879C132.329 25.8145 132.486 25.5607 132.622 25.3068C132.783 25.0537 132.903 24.777 132.978 24.4867C133.081 24.2244 133.1 23.9364 133.032 23.6627C133.117 23.6571 133.197 23.6244 133.261 23.5695C133.325 23.5146 133.369 23.4404 133.388 23.3581C133.458 23.1511 133.63 23.0847 133.903 23.1511C134.142 22.4012 134.399 21.6983 134.684 21.05C134.97 20.4017 135.247 19.769 135.555 19.152C135.864 18.5349 136.168 17.9218 136.477 17.3086C136.838 16.6144 137.146 15.8937 137.399 15.1529C136.86 14.6633 136.424 14.0711 136.118 13.4111C135.883 12.7747 135.695 12.1221 135.555 11.4584C135.419 10.8101 135.317 10.1618 135.247 9.50569C135.184 8.80978 135.054 8.12171 134.856 7.45146C135.244 6.85936 135.751 6.35407 136.344 5.96742C136.927 5.55573 137.565 5.22713 138.238 4.99107C138.986 4.71073 139.759 4.50534 140.546 4.37793C141.367 4.20609 142.239 4.01733 143.163 3.81165C144.803 3.29093 146.272 2.90039 147.568 2.64004C148.865 2.37968 150.12 2.15056 151.333 1.95269C152.563 1.7457 153.844 1.56215 155.176 1.44108C156.508 1.32002 158.047 1.03102 159.792 0.722495C159.824 0.824035 159.878 0.874805 159.945 0.874805H160.304C160.347 0.986888 160.425 1.08223 160.526 1.14689C160.627 1.21154 160.746 1.2421 160.866 1.2341C160.869 1.14541 160.852 1.05718 160.815 0.976344V0.718589C160.904 0.721276 160.991 0.738428 161.073 0.769359C161.179 0.793062 161.283 0.827071 161.382 0.870899C161.422 0.888429 161.465 0.897479 161.509 0.897479C161.552 0.897479 161.596 0.888429 161.636 0.870899C161.706 0.804508 161.722 0.683441 161.686 0.511604C162.084 1.21526 162.626 1.82734 163.276 2.30808C163.957 2.76406 164.679 3.15626 165.432 3.47969C165.464 3.69981 165.464 3.92349 165.432 4.14361C165.429 4.27523 165.412 4.40616 165.381 4.53414C165.341 4.66709 165.323 4.80549 165.326 4.94421C165.338 5.15325 165.373 5.36029 165.432 5.56126C164.956 6.40334 164.31 7.1364 163.534 7.71312C162.863 8.21569 162.119 8.61095 161.327 8.88473C160.511 9.16668 159.67 9.37322 158.816 9.50178C157.965 9.63847 157.074 9.79078 156.152 9.96262C155.228 10.1044 154.315 10.3092 153.419 10.5758C152.457 10.8634 151.538 11.2771 150.685 11.806C150.437 11.706 150.169 11.671 149.904 11.7044C149.679 11.7082 149.456 11.7424 149.24 11.806C148.998 11.8763 148.724 11.9426 148.42 12.0129C148.081 12.08 147.732 12.08 147.393 12.0129C147.124 12.2643 146.803 12.4512 146.451 12.5597C146.108 12.6612 145.748 12.7667 145.374 12.8682C145.54 13.2199 145.611 13.609 145.581 13.9969C145.573 14.3275 145.625 14.6567 145.733 14.9693C147.319 15.1062 148.915 15.1062 150.501 14.9693C152.243 14.7975 153.951 14.6777 155.625 14.61C155.646 14.6695 155.653 14.7333 155.644 14.7959C155.635 14.8585 155.611 14.918 155.574 14.9693C155.497 15.072 155.46 15.2003 155.473 15.3286C155.797 15.5492 156.089 15.8119 156.344 16.1097L157.164 17.0314C157.456 17.2913 157.765 17.5314 158.09 17.7499C158.418 17.9258 158.793 17.9967 159.163 17.953C159.335 18.2931 159.456 18.6561 159.523 19.0309C159.587 19.4279 159.534 19.835 159.37 20.2025C158.688 20.6477 158.022 21.1086 157.371 21.585C156.712 22.0344 156.027 22.4451 155.321 22.8152C154.613 23.2022 153.865 23.5112 153.091 23.7369C152.225 23.9805 151.326 24.0834 150.427 24.0415H149.966C149.803 24.0179 149.652 23.941 149.537 23.8228C149.101 24.0091 148.625 24.0791 148.154 24.0259C147.688 23.949 147.209 24.0031 146.772 24.1821C146.226 23.9997 145.652 23.9125 145.077 23.9243C144.519 23.9333 143.964 23.8461 143.436 23.6666C142.822 24.557 142.241 25.4969 141.695 26.4863C141.134 27.472 140.653 28.5011 140.257 29.5637C141.41 29.7514 142.577 29.8377 143.745 29.8215C144.667 29.785 145.539 29.716 146.362 29.6145L148.873 29.306C149.946 29.1974 151.025 29.1634 152.103 29.2044C153.025 28.7742 154.012 28.4972 155.024 28.3843C156.083 28.2287 157.128 27.9884 158.148 27.6657C158.496 27.7747 158.801 27.9906 159.019 28.2827C159.26 28.5578 159.481 28.8487 159.683 29.1536C159.907 29.4086 160.147 29.6486 160.402 29.8722C160.529 29.9751 160.679 30.047 160.838 30.0822C160.998 30.1174 161.164 30.1151 161.323 30.0753C161.493 30.2404 161.601 30.4578 161.632 30.6924C161.697 30.9117 161.749 31.1347 161.788 31.3602C161.845 31.5432 161.93 31.716 162.042 31.8718C162.123 31.9289 162.216 31.9675 162.314 31.985C162.412 32.0026 162.512 31.9986 162.608 31.9733C162.082 33.134 161.332 34.1797 160.402 35.0508C159.6 35.7751 158.674 36.348 157.668 36.7418C156.571 37.1434 155.436 37.4351 154.282 37.6127C153.05 37.7845 151.666 38.0071 150.13 38.2805C149.81 38.3473 149.479 38.3473 149.158 38.2805C148.912 38.1737 148.645 38.1204 148.377 38.1243C147.42 38.2961 146.272 38.468 144.94 38.6359C143.631 38.809 142.311 38.8783 140.992 38.8429C139.696 38.8119 138.407 38.6404 137.149 38.3313C136.011 38.0649 134.962 37.5062 134.106 36.7105ZM167.072 36.5543C166.933 36.4165 166.812 36.2617 166.713 36.0935C166.596 35.8443 166.509 35.5821 166.455 35.3124C165.968 34.715 165.586 34.0388 165.326 33.3129C165.054 32.568 164.866 31.7952 164.764 31.0087C164.661 30.1926 164.644 29.368 164.713 28.5483C164.773 27.7708 164.893 26.9992 165.072 26.2402C165.177 25.886 165.262 25.5261 165.326 25.1623C165.501 24.5297 165.673 23.9009 165.842 23.2761C165.979 22.6943 166.246 22.151 166.623 21.6866C166.486 21.2831 166.504 20.8433 166.674 20.4525C166.842 20.0112 167.013 19.6011 167.185 19.2223C167.241 19.1409 167.292 19.0561 167.338 18.9684C167.367 18.8803 167.402 18.7942 167.443 18.7107L168.615 15.2778C169.023 14.1479 169.414 13.0713 169.786 12.0481C170.471 10.1657 171.122 8.31976 171.739 6.51026C172.356 4.70077 172.938 2.77021 173.485 0.718589C173.701 0.551414 173.942 0.419595 174.199 0.328052C174.282 0.287212 174.369 0.253252 174.457 0.226512C174.573 0.188515 174.694 0.170039 174.816 0.171837C175.627 0.590515 176.466 0.950728 177.328 1.24972C178.137 1.52569 178.984 1.68097 179.839 1.71056L180.71 2.49163C181.147 2.99338 181.526 3.54373 181.838 4.13189C182.199 4.78788 182.309 5.5528 182.147 6.28375C182.02 6.50801 181.846 6.70141 181.635 6.85003C181.452 7.56228 181.229 8.26373 180.967 8.95113C180.728 9.53172 180.488 10.0954 180.249 10.6422C179.975 11.2592 179.722 11.8723 179.468 12.4894C179.204 13.2114 179.002 13.9549 178.866 14.7116C178.697 14.8939 178.559 15.1022 178.456 15.3286C178.42 15.5037 178.368 15.675 178.3 15.8402C178.234 16.0472 178.148 16.2698 178.046 16.508C177.932 16.7248 177.775 16.9161 177.585 17.0704C177.488 17.9647 177.281 18.8435 176.968 19.687L176.148 21.6397C175.672 22.84 175.228 24.0363 174.816 25.2287C174.383 26.5197 174.141 27.8669 174.098 29.2278C174.466 29.1317 174.845 29.0805 175.226 29.0755C175.667 29.0755 176.106 29.1481 176.523 29.2903C177.775 28.6709 179.131 28.2895 180.522 28.1656C181.991 28.0302 183.443 27.9443 184.881 27.9078C185.993 27.9124 187.105 27.8603 188.212 27.7516C188.418 27.9123 188.641 28.0511 188.876 28.1656H189.7C189.838 28.1692 189.975 28.1862 190.11 28.2164C190.507 28.6361 190.975 28.9825 191.492 29.2396C191.938 29.4114 192.414 29.5832 192.926 29.7512C193.371 29.923 193.801 30.1105 194.211 30.3174C194.669 30.4972 195.1 30.739 195.492 31.036L195.952 33.6487C196.226 34.0393 196.343 34.2814 196.312 34.4298C196.316 34.6847 196.244 34.935 196.105 35.1484L196.21 35.8123C195.755 35.8753 195.317 36.0322 194.925 36.2731C194.688 36.4418 194.465 36.6314 194.261 36.8394C193.871 36.8746 193.527 36.8902 193.184 36.8902C192.472 36.8937 191.765 36.9975 191.082 37.1987C189.997 36.8124 188.852 36.6207 187.7 36.6324C187.22 36.6324 186.724 36.6324 186.212 36.6871C185.701 36.7418 185.256 36.7691 184.775 36.8394L183.24 37.0425C182.725 37.0777 182.213 37.0972 181.702 37.0972C181.311 37.1636 180.999 37.2143 180.831 37.2495C180.655 37.2858 180.482 37.3367 180.315 37.4018C179.154 37.7793 177.89 38.1555 176.523 38.5305C175.197 38.8919 173.828 39.068 172.454 39.0538C170.438 39.0538 168.815 38.5409 167.584 37.5151C167.497 37.3018 167.393 37.0955 167.275 36.898C167.2 36.7864 167.132 36.6703 167.072 36.5504V36.5543ZM196.05 33.5862L196.718 33.0746L196.769 31.9968C197.625 29.9139 198.496 27.9143 199.381 25.9981C200.308 24.0845 201.266 22.1201 202.256 20.1049C202.56 19.4514 202.868 18.8005 203.177 18.1522C203.487 17.5039 203.811 16.8374 204.15 16.1526C204.116 16.0186 204.099 15.8809 204.099 15.7426C204.104 15.5497 204.138 15.3587 204.201 15.1763C204.621 14.5903 204.999 13.9742 205.329 13.333C205.629 12.7758 205.92 12.2108 206.204 11.638C206.511 10.9559 206.837 10.2724 207.18 9.5877C207.569 8.87762 208.027 8.20782 208.547 7.58815L208.907 7.07264L209.469 7.12731C209.593 7.06133 209.724 7.00896 209.86 6.9711C210.057 6.89971 210.266 6.86529 210.477 6.86956L211.398 7.02187C212.545 6.50876 213.57 5.758 214.405 4.81924C215.382 3.70952 216.273 2.52664 217.069 1.28096L217.686 0.410065L218.506 0.921669C218.764 1.06156 219.04 1.16537 219.326 1.23019C219.717 1.33173 220.107 1.4528 220.498 1.58949C221.213 1.76133 221.916 1.98003 222.599 2.20263C223.186 2.36175 223.725 2.66209 224.169 3.07744L224.423 3.53827C224.493 3.92881 224.544 4.25686 224.579 4.56148C224.614 4.8661 224.716 5.17853 224.782 5.48706C224.918 6.20304 225.037 6.92033 225.141 7.63892C225.251 8.40409 225.32 9.17453 225.348 9.947C225.516 10.6304 225.673 11.3295 225.809 12.0481C225.946 12.7667 226.133 13.415 226.27 14.0984C226.442 15.0904 226.629 16.0472 226.832 16.9689C227.046 17.8434 227.331 18.6989 227.684 19.5269C227.891 19.5139 228.099 19.531 228.301 19.5777C228.758 19.3973 229.243 19.2944 229.734 19.273L230.402 19.2184L230.609 19.8354C230.683 19.9467 230.768 20.05 230.863 20.1439C230.975 20.254 231.095 20.3558 231.222 20.4486C231.64 20.4446 232.05 20.5701 232.394 20.8079C232.635 20.9545 232.859 21.1274 233.062 21.3234L233.315 21.5772C233.398 21.6344 233.484 21.6865 233.573 21.7334L234.495 22.0927L233.983 23.0652C233.538 23.8678 232.948 24.5803 232.241 25.1663C231.478 25.8577 230.612 26.428 229.676 26.8573C229.742 27.0738 229.777 27.2986 229.781 27.5251C229.812 27.7282 229.863 27.9703 229.933 28.2437C230.073 28.9552 230.176 29.6734 230.242 30.3956C230.343 31.1446 230.343 31.9039 230.242 32.6529C229.92 33.498 229.507 34.3059 229.012 35.0625C228.551 35.7639 228 36.4009 227.371 36.9566C226.738 37.5145 226.029 37.9812 225.266 38.343C224.488 38.6812 223.654 38.8719 222.806 38.9054C222.432 38.839 222.07 38.7179 221.732 38.5461C221.525 38.4094 221.341 38.2727 221.166 38.1555C220.96 38.001 220.737 37.87 220.502 37.765L219.834 37.4565L220.037 36.6754C220.09 36.5611 220.113 36.4352 220.104 36.3096C220.095 36.1839 220.055 36.0626 219.986 35.9568C219.796 35.6449 219.555 35.3675 219.272 35.1367C219.145 35.0415 219.025 34.9385 218.912 34.8282C218.801 34.6906 218.681 34.5601 218.553 34.4376L217.526 33.266L219.217 32.8052C220.243 32.5448 220.926 32.2024 221.267 31.7781C221.608 31.3537 221.746 30.5856 221.681 29.4739C220.992 29.3048 220.273 29.2875 219.576 29.4231C219.029 29.5247 218.483 29.6418 217.936 29.7785C217.155 29.9868 216.387 30.1756 215.632 30.3448C214.819 30.4858 213.996 30.5537 213.171 30.5479C212.553 30.5449 211.935 30.494 211.324 30.3956L210.762 30.3448L210.606 29.7785C210.606 29.7121 210.555 29.6418 210.453 29.5754C210.392 29.4835 210.323 29.3973 210.246 29.3177C210.078 29.1146 209.856 28.8412 209.633 28.4975C209.512 28.3097 209.435 28.0968 209.408 27.875C209.381 27.6531 209.404 27.428 209.477 27.2166C209.247 26.865 209.107 26.4629 209.067 26.045C208.93 26.3183 208.813 26.5917 208.707 26.8651C208.602 27.1385 208.575 27.3455 208.504 27.5837L208.301 28.2515L207.633 28.353C207.549 28.4442 207.479 28.5484 207.427 28.6616C207.394 28.7605 207.394 28.8672 207.427 28.9662L207.633 29.5325L207.122 29.9933C207.052 30.0941 206.965 30.1815 206.864 30.2511C206.772 30.311 206.686 30.379 206.606 30.4541C206.542 30.8229 206.44 31.184 206.302 31.532C206.196 31.8718 206.079 32.2155 205.942 32.5552C205.771 33.102 205.599 33.6331 205.427 34.1447C205.292 34.6466 205.224 35.1639 205.224 35.6834L205.017 36.3513C204.858 36.6146 204.628 36.8273 204.353 36.9644C204.12 37.0974 203.88 37.2173 203.634 37.3237C203.372 37.4075 203.129 37.54 202.916 37.7142L202.763 38.382L201.982 38.4836C201.537 38.5851 201.201 38.6554 201.01 38.6867C200.807 38.7253 200.6 38.7436 200.393 38.7413L199.725 38.6632C199.405 38.3339 199.063 38.026 198.702 37.7416C198.449 37.4814 198.155 37.2649 197.831 37.1011L197.522 36.7105C197.403 36.4845 197.316 36.2425 197.265 35.992C197.231 35.7492 197.18 35.509 197.112 35.2734C197.084 34.946 196.979 34.63 196.804 34.3517L196.05 33.5862ZM212.406 20.2572C211.924 20.9419 211.462 21.6592 211.019 22.4091C211.241 22.3778 211.464 22.3608 211.687 22.3583C211.928 22.3587 212.168 22.3418 212.406 22.3075C213.601 22.2398 214.711 22.1539 215.737 22.0498C216.76 21.9482 217.873 21.7764 219.069 21.5382C218.808 20.2728 218.501 18.9919 218.147 17.6953C217.84 16.3596 217.497 15.0266 217.12 13.6962L216.866 14.2078C215.992 15.1539 215.17 16.1474 214.405 17.1837C213.681 18.1433 213.029 19.1549 212.453 20.2103L212.406 20.2572ZM236.908 40.1981C235.625 39.2696 234.616 38.0121 233.987 36.5582C233.344 35.194 233.252 33.6343 233.729 32.2037C233.799 31.155 234.064 30.1284 234.51 29.1771C234.989 28.1886 235.555 27.2449 236.202 26.3574C236.873 25.4667 237.601 24.6201 238.381 23.8228L240.572 21.6319C240.713 21.2173 240.961 20.8471 241.29 20.5579C241.634 20.2486 241.994 19.9579 242.368 19.687C242.759 19.3785 243.149 19.0543 243.54 18.7107C243.937 18.3871 244.267 17.9892 244.512 17.5391C244.362 17.031 244.136 16.548 243.844 16.1058C243.54 15.6254 243.196 15.149 242.821 14.6686C242.446 14.1882 242.04 13.7118 241.65 13.2353C241.245 12.7614 240.868 12.2646 240.521 11.7474C240.484 11.5755 240.354 11.5248 240.13 11.5951C240.057 11.6316 239.974 11.6462 239.893 11.6372C239.811 11.6282 239.733 11.5959 239.67 11.5443C239.726 10.9396 239.601 10.3318 239.31 9.79859C239.056 9.17731 238.671 8.61793 238.182 8.15833C238.376 7.64039 238.522 7.10572 238.619 6.56103C238.788 5.86552 238.753 5.13589 238.517 4.45994C238.481 4.13226 238.516 3.80068 238.619 3.4875C238.756 3.17898 238.892 2.88607 239.029 2.6127C239.157 2.36288 239.26 2.1013 239.338 1.83162C239.407 1.55965 239.389 1.27286 239.287 1.01149C239.751 0.938172 240.225 0.972921 240.673 1.11303C241.078 1.19608 241.471 1.32719 241.845 1.50357C242.235 1.64026 242.563 1.75742 242.872 1.86287C243.191 1.96626 243.538 1.94818 243.844 1.8121C243.781 1.95703 243.764 2.11772 243.794 2.27293L244.001 2.47601C244.087 2.50542 244.172 2.53931 244.254 2.57755C244.306 2.59592 244.35 2.63161 244.379 2.67858C244.407 2.72555 244.418 2.78092 244.411 2.8353C245.197 3.12658 245.913 3.58036 246.512 4.16704C247.317 4.879 248.072 5.64492 248.773 6.4595C249.466 7.24564 250.117 8.06685 250.726 8.91988C251.309 9.70096 251.737 10.3167 252.011 10.7671C252.999 10.1501 254.061 9.41587 255.186 8.56059C256.31 7.70531 257.529 6.83441 258.724 5.94789C259.919 5.06137 261.184 4.22171 262.415 3.43283C263.578 2.6632 264.814 2.00919 266.105 1.48014C266.723 1.73426 267.269 2.13664 267.695 2.65175C268.094 3.11238 268.423 3.62959 268.671 4.18656C268.944 4.70004 269.183 5.23103 269.386 5.77605C269.621 6.28324 269.933 6.75093 270.311 7.16246C270.011 7.77739 269.65 8.36087 269.233 8.90426C268.841 9.38319 268.561 9.94356 268.413 10.5445C267.343 11.0025 266.313 11.5512 265.336 12.1848C264.313 12.8331 263.011 13.7222 261.43 14.8522C259.85 15.9821 257.994 17.474 255.861 19.3277C256.321 19.8357 256.733 20.3847 257.092 20.968C257.435 21.4796 257.709 21.9248 257.912 22.2997C258.128 22.6961 258.316 23.1072 258.474 23.5299C258.842 23.7933 259.156 24.1247 259.4 24.5062C259.642 24.8848 259.863 25.2759 260.064 25.6779C260.304 26.0511 260.565 26.411 260.845 26.7557C261.133 27.1112 261.503 27.3924 261.923 27.5759C262.055 28.1691 262.229 28.7524 262.442 29.3216C262.649 29.8371 262.833 30.3487 263.008 30.8603C263.2 31.3647 263.348 31.8847 263.45 32.4146C263.587 32.8979 263.638 33.4015 263.602 33.9026C263.368 34.7523 262.947 35.5393 262.372 36.2068C261.866 36.7608 261.469 37.4046 261.2 38.1048C260.81 38.2063 260.45 38.3274 260.071 38.4641C259.743 38.5598 259.444 38.7356 259.2 38.9757L255.717 36.5153C255.091 34.442 254.194 32.4605 253.049 30.6221C252.021 28.9326 250.891 27.3063 249.667 25.7521C247.998 27.0398 246.421 28.444 244.95 29.9542C243.454 31.4831 242.083 33.1285 240.849 34.875C240.799 35.5989 240.696 36.3181 240.54 37.0269C240.424 37.5323 240.197 38.0058 239.877 38.4133C239.548 38.8055 239.151 39.135 238.705 39.3857C238.122 39.6994 237.516 39.9683 236.893 40.1902L236.908 40.1981Z" fill="white"/>
</g>
<defs>
<clipPath id="clip0">
<rect width="270.32" height="40.3074" fill="white"/>
</clipPath>
</defs>
</svg>
