<svg width="390" height="376" viewBox="0 0 390 376" fill="none" xmlns="http://www.w3.org/2000/svg">
<path d="M10.8867 89.6094C10.5612 87.0052 9.91016 84.7266 8.93359 82.7734C8.28255 80.4948 7.46875 78.0534 6.49219 75.4492C4.86458 71.543 3.39974 67.3112 2.09766 62.7539C0.795573 58.1966 0.144531 52.8255 0.144531 46.6406C0.795573 43.3854 1.60938 41.1068 2.58594 39.8047C3.5625 38.1771 4.53906 36.875 5.51562 35.8984L7.46875 27.1094H14.793C17.3971 27.4349 20.0013 27.5977 22.6055 27.5977C25.5352 27.5977 28.3021 27.5977 30.9062 27.5977C43.276 27.5977 55.9714 27.1094 68.9922 26.1328C82.013 25.1562 95.3594 24.0169 109.031 22.7148C124.005 20.7617 140.118 19.2969 157.371 18.3203C158.999 14.7396 159.975 12.4609 160.301 11.4844C160.952 10.5078 161.603 9.36849 162.254 8.06641L167.625 5.13672C175.112 4.8112 180.32 5.78776 183.25 8.06641C186.18 10.0195 188.458 11.9727 190.086 13.9258C198.549 13.2747 207.176 12.4609 215.965 11.4844C224.754 10.1823 233.868 8.88021 243.309 7.57812C256.329 5.95052 269.513 4.32292 282.859 2.69531C296.206 1.06771 309.227 0.253906 321.922 0.253906C327.456 0.253906 332.664 0.416667 337.547 0.742188C342.43 1.06771 347.15 1.55599 351.707 2.20703L357.566 6.60156C358.868 8.88021 360.496 10.9961 362.449 12.9492C364.402 14.9023 366.681 16.8555 369.285 18.8086C374.168 22.7148 378.888 27.5977 383.445 33.457C388.328 39.3164 390.118 47.9427 388.816 59.3359L386.375 64.2188C385.073 65.5208 383.445 66.8229 381.492 68.125L376.609 74.4727H371.238C367.983 74.4727 365.542 74.7982 363.914 75.4492C362.286 75.7747 360.333 76.4258 358.055 77.4023C356.753 78.0534 355.288 78.7044 353.66 79.3555C352.033 79.681 350.242 80.1693 348.289 80.8203C344.708 80.4948 341.941 80.332 339.988 80.332C338.035 80.332 335.757 80.332 333.152 80.332C323.387 80.332 312.807 80.9831 301.414 82.2852C290.021 83.5872 278.953 85.0521 268.211 86.6797C260.398 87.6562 252.911 88.6328 245.75 89.6094C238.589 90.2604 232.078 90.9115 226.219 91.5625C222.964 100.026 220.034 107.513 217.43 114.023C214.826 120.534 212.059 127.044 209.129 133.555C206.199 140.065 203.432 146.738 200.828 153.574C198.224 160.085 195.783 167.409 193.504 175.547C189.598 181.406 186.342 187.103 183.738 192.637C181.134 197.845 179.018 203.867 177.391 210.703C172.508 216.237 168.927 222.259 166.648 228.77C164.695 235.28 162.905 240.814 161.277 245.371L159.324 252.695C157.046 254.974 155.581 256.764 154.93 258.066C154.604 259.368 153.79 260.833 152.488 262.461C151.512 266.693 150.21 270.762 148.582 274.668C147.931 276.296 147.28 278.086 146.629 280.039C145.978 281.667 145.815 282.969 146.141 283.945C145.49 287.526 144.513 290.293 143.211 292.246C143.211 294.199 143.048 296.152 142.723 298.105C142.397 300.059 142.072 302.012 141.746 303.965C141.095 306.243 140.607 308.359 140.281 310.312C139.956 311.94 140.118 313.568 140.77 315.195C141.746 316.497 142.723 317.799 143.699 319.102C144.676 320.404 145.49 322.031 146.141 323.984C146.792 324.635 147.605 325.124 148.582 325.449C149.559 325.775 150.372 326.263 151.023 326.914C153.628 329.193 156.069 330.495 158.348 330.82L163.23 336.68C165.184 348.398 163.393 357.513 157.859 364.023C152 371.51 142.234 375.254 128.562 375.254L121.727 374.766C119.448 372.487 118.146 371.022 117.82 370.371C114.891 369.069 112.449 367.93 110.496 366.953C108.543 366.302 106.753 364.837 105.125 362.559C104.474 361.908 103.66 361.582 102.684 361.582C101.707 361.257 100.893 360.768 100.242 360.117C96.987 359.141 94.3828 358.001 92.4297 356.699L87.0586 353.77C87.3841 350.514 87.5469 348.236 87.5469 346.934C84.9427 343.353 82.8268 339.447 81.1992 335.215C79.8971 330.983 78.7578 326.589 77.7812 322.031C76.8047 318.451 75.8281 315.195 74.8516 312.266C74.2005 309.336 73.0612 306.732 71.4336 304.453C70.7826 281.667 72.8984 262.624 77.7812 247.324C82.6641 231.699 88.0352 216.562 93.8945 201.914C97.1497 194.102 100.242 186.126 103.172 177.988C106.102 169.85 108.706 161.549 110.984 153.086L116.355 147.715C118.634 145.762 120.099 144.622 120.75 144.297C120.75 140.065 121.564 135.996 123.191 132.09C124.819 127.858 126.609 123.626 128.562 119.395C129.865 116.79 131.004 114.186 131.98 111.582C133.283 108.978 134.096 106.699 134.422 104.746C132.143 104.746 130.027 104.909 128.074 105.234C126.447 105.234 124.656 105.397 122.703 105.723C118.471 106.699 114.402 107.188 110.496 107.188C107.566 107.188 105.451 107.025 104.148 106.699C101.544 108.001 99.1029 108.815 96.8242 109.141C94.5456 109.141 92.2669 109.141 89.9883 109.141H84.1289H78.2695C74.3633 109.141 71.2708 109.629 68.9922 110.605C64.4349 110.605 61.5052 110.605 60.2031 110.605C58.901 110.605 57.4362 110.605 55.8086 110.605H49.9492H44.0898C41.4857 110.605 38.556 110.443 35.3008 110.117C32.0456 109.466 28.6276 108.164 25.0469 106.211L21.6289 102.305C19.6758 98.724 17.8854 96.7708 16.2578 96.4453L10.8867 94.9805V89.6094Z" fill="#06283B"/>
</svg>
