<?xml version="1.0" encoding="UTF-8"?>
<svg xmlns="http://www.w3.org/2000/svg" xmlns:xlink="http://www.w3.org/1999/xlink" width="50pt" height="50pt" viewBox="0 0 50 50" version="1.1">
<g id="surface1">
<path style=" stroke:none;fill-rule:nonzero;fill:rgb(29.803922%,68.627451%,31.372549%);fill-opacity:1;" d="M 25.007812 0 L 24.992188 0 C 11.210938 0 0 11.210938 0 25 C 0 30.46875 1.761719 35.539062 4.757812 39.652344 L 1.644531 48.941406 L 11.253906 45.867188 C 15.207031 48.488281 19.921875 50 25.007812 50 C 38.789062 50 50 38.785156 50 25 C 50 11.214844 38.789062 0 25.007812 0 Z M 25.007812 0 "/>
<path style=" stroke:none;fill-rule:nonzero;fill:rgb(98.039216%,98.039216%,98.039216%);fill-opacity:1;" d="M 39.554688 35.304688 C 38.949219 37.007812 36.554688 38.417969 34.648438 38.832031 C 33.339844 39.109375 31.632812 39.332031 25.890625 36.949219 C 18.542969 33.90625 13.8125 26.441406 13.445312 25.957031 C 13.089844 25.472656 10.476562 22.003906 10.476562 18.414062 C 10.476562 14.828125 12.296875 13.082031 13.03125 12.332031 C 13.632812 11.714844 14.632812 11.433594 15.585938 11.433594 C 15.898438 11.433594 16.175781 11.449219 16.425781 11.460938 C 17.160156 11.492188 17.527344 11.539062 18.011719 12.695312 C 18.617188 14.148438 20.085938 17.738281 20.257812 18.105469 C 20.4375 18.476562 20.617188 18.976562 20.367188 19.460938 C 20.132812 19.960938 19.925781 20.179688 19.554688 20.605469 C 19.1875 21.03125 18.835938 21.355469 18.46875 21.8125 C 18.132812 22.210938 17.75 22.632812 18.175781 23.367188 C 18.601562 24.085938 20.070312 26.484375 22.230469 28.410156 C 25.023438 30.894531 27.285156 31.6875 28.09375 32.023438 C 28.695312 32.273438 29.414062 32.214844 29.855469 31.746094 C 30.414062 31.144531 31.105469 30.144531 31.808594 29.160156 C 32.308594 28.453125 32.941406 28.367188 33.601562 28.617188 C 34.277344 28.851562 37.851562 30.617188 38.585938 30.980469 C 39.320312 31.351562 39.804688 31.523438 39.980469 31.835938 C 40.15625 32.144531 40.15625 33.597656 39.554688 35.304688 Z M 39.554688 35.304688 "/>
</g>
</svg>
